999
dxfrw 0.5.10
0
SECTION
2
HEADER
9
$ACADVER
1
AC1021
9
$HANDSEED
5
20000
9
$DWGCODEPAGE
3
ANSI_1252
9
$INSBASE
10
0
20
0
30
0
9
$EXTMIN
10
-300
20
-94
30
0
9
$EXTMAX
10
117.083340492
20
150
30
0
9
$LIMMIN
10
0
20
0
9
$LIMMAX
10
420
20
297
9
$ORTHOMODE
70
0
9
$LTSCALE
40
1
9
$TEXTSTYLE
7
STANDARD
9
$CLAYER
8
Visualization
9
$DIMASZ
40
2.5
9
$DIMLFAC
40
1
9
$DIMSCALE
40
1
9
$DIMEXO
40
0.625
9
$DIMEXE
40
1.25
9
$DIMTXT
40
2.5
9
$DIMTSZ
40
0
9
$DIMAUNIT
70
0
9
$DIMADEC
70
2
9
$DIMLUNIT
70
2
9
$DIMSTYLE
2
STANDARD
9
$DIMGAP
40
0.625
9
$DIMTIH
70
0
9
$LUNITS
70
2
9
$LUPREC
70
4
9
$AUNITS
70
0
9
$AUPREC
70
2
9
$SPLINESEGS
70
8
9
$GRIDMODE
70
1
9
$SNAPSTYLE
70
0
9
$GRIDUNIT
10
0
20
0
9
$PINSBASE
10
0
20
0
30
0
9
$PLIMMIN
10
0
20
0
9
$PLIMMAX
10
210
20
297
9
$INSUNITS
70
4
9
$PSVPSCALE
40
1
0
ENDSEC
0
SECTION
2
CLASSES
0
ENDSEC
0
SECTION
2
TABLES
0
TABLE
2
VPORT
5
8
330
0
100
AcDbSymbolTable
70
1
0
VPORT
5
31
330
2
100
AcDbSymbolTableRecord
100
AcDbViewportTableRecord
2
*ACTIVE
70
0
10
0
20
0
11
1
21
1
12
-188.621007
22
-45.095597076
13
0
23
0
14
10
24
10
15
10
25
10
16
0
26
0
36
1
17
0
27
0
37
0
40
29.4855827035
41
1.61764705882
42
50
43
0
44
0
50
0
51
0
71
0
72
100
73
1
74
3
75
0
76
1
77
0
78
0
281
0
65
1
110
0
120
0
130
0
111
1
121
0
131
0
112
0
122
1
132
0
79
0
146
0
348
10020
60
7
61
5
292
1
282
1
141
0
142
0
63
250
421
3358443
0
ENDTAB
0
TABLE
2
LTYPE
5
5
330
0
100
AcDbSymbolTable
70
4
0
LTYPE
5
14
330
5
100
AcDbSymbolTableRecord
100
AcDbLinetypeTableRecord
2
ByBlock
70
0
3

72
65
73
0
40
0
0
LTYPE
5
15
330
5
100
AcDbSymbolTableRecord
100
AcDbLinetypeTableRecord
2
ByLayer
70
0
3

72
65
73
0
40
0
0
LTYPE
5
16
330
5
100
AcDbSymbolTableRecord
100
AcDbLinetypeTableRecord
2
Continuous
70
0
3
Solid line
72
65
73
0
40
0
0
LTYPE
5
32
330
5
100
AcDbSymbolTableRecord
100
AcDbLinetypeTableRecord
2
DOT
70
0
3
Dot . . . . . . . . . . . . . . . . . . . . . .
72
65
73
2
40
6.35
49
0
74
0
49
-6.35
74
0
0
LTYPE
5
33
330
5
100
AcDbSymbolTableRecord
100
AcDbLinetypeTableRecord
2
DOT2
70
0
3
Dot (.5x) .....................................
72
65
73
2
40
3.175
49
0
74
0
49
-3.175
74
0
0
LTYPE
5
34
330
5
100
AcDbSymbolTableRecord
100
AcDbLinetypeTableRecord
2
DOTX2
70
0
3
Dot (2x) .  .  .  .  .  .  .  .  .  .  .  .  .
72
65
73
2
40
12.7
49
0
74
0
49
-12.7
74
0
0
LTYPE
5
35
330
5
100
AcDbSymbolTableRecord
100
AcDbLinetypeTableRecord
2
DASHED
70
0
3
Dot . . . . . . . . . . . . . . . . . . . . . .
72
65
73
2
40
19.05
49
12.7
74
0
49
-6.35
74
0
0
LTYPE
5
36
330
5
100
AcDbSymbolTableRecord
100
AcDbLinetypeTableRecord
2
DASHED2
70
0
3
Dashed (.5x) _ _ _ _ _ _ _ _ _ _ _ _ _ _ _ _ _
72
65
73
2
40
9.525
49
6.35
74
0
49
-3.175
74
0
0
LTYPE
5
37
330
5
100
AcDbSymbolTableRecord
100
AcDbLinetypeTableRecord
2
DASHEDX2
70
0
3
Dashed (2x) ____  ____  ____  ____  ____  ___
72
65
73
2
40
38.1
49
25.4
74
0
49
-12.7
74
0
0
LTYPE
5
38
330
5
100
AcDbSymbolTableRecord
100
AcDbLinetypeTableRecord
2
DASHDOT
70
0
3
Dash dot __ . __ . __ . __ . __ . __ . __ . __
72
65
73
4
40
25.4
49
12.7
74
0
49
-6.35
74
0
49
0
74
0
49
-6.35
74
0
0
LTYPE
5
39
330
5
100
AcDbSymbolTableRecord
100
AcDbLinetypeTableRecord
2
DASHDOT2
70
0
3
Dash dot (.5x) _._._._._._._._._._._._._._._.
72
65
73
4
40
12.7
49
6.35
74
0
49
-3.175
74
0
49
0
74
0
49
-3.175
74
0
0
LTYPE
5
3A
330
5
100
AcDbSymbolTableRecord
100
AcDbLinetypeTableRecord
2
DASHDOTX2
70
0
3
Dash dot (2x) ____  .  ____  .  ____  .  ___
72
65
73
4
40
50.8
49
25.4
74
0
49
-12.7
74
0
49
0
74
0
49
-12.7
74
0
0
LTYPE
5
3B
330
5
100
AcDbSymbolTableRecord
100
AcDbLinetypeTableRecord
2
DIVIDE
70
0
3
Divide ____ . . ____ . . ____ . . ____ . . ____
72
65
73
6
40
31.75
49
12.7
74
0
49
-6.35
74
0
49
0
74
0
49
-6.35
74
0
49
0
74
0
49
-6.35
74
0
0
LTYPE
5
3C
330
5
100
AcDbSymbolTableRecord
100
AcDbLinetypeTableRecord
2
DIVIDE2
70
0
3
Divide (.5x) __..__..__..__..__..__..__..__.._
72
65
73
6
40
15.875
49
6.35
74
0
49
-3.175
74
0
49
0
74
0
49
-3.175
74
0
49
0
74
0
49
-3.175
74
0
0
LTYPE
5
3D
330
5
100
AcDbSymbolTableRecord
100
AcDbLinetypeTableRecord
2
DIVIDEX2
70
0
3
Divide (2x) ________  .  .  ________  .  .  _
72
65
73
6
40
63.5
49
25.4
74
0
49
-12.7
74
0
49
0
74
0
49
-12.7
74
0
49
0
74
0
49
-12.7
74
0
0
LTYPE
5
3E
330
5
100
AcDbSymbolTableRecord
100
AcDbLinetypeTableRecord
2
BORDER
70
0
3
Border __ __ . __ __ . __ __ . __ __ . __ __ .
72
65
73
6
40
44.45
49
12.7
74
0
49
-6.35
74
0
49
12.7
74
0
49
-6.35
74
0
49
0
74
0
49
-6.35
74
0
0
LTYPE
5
3F
330
5
100
AcDbSymbolTableRecord
100
AcDbLinetypeTableRecord
2
BORDER2
70
0
3
Border (.5x) __.__.__.__.__.__.__.__.__.__.__.
72
65
73
6
40
22.225
49
6.35
74
0
49
-3.175
74
0
49
6.35
74
0
49
-3.175
74
0
49
0
74
0
49
-3.175
74
0
0
LTYPE
5
40
330
5
100
AcDbSymbolTableRecord
100
AcDbLinetypeTableRecord
2
BORDERX2
70
0
3
Border (2x) ____  ____  .  ____  ____  .  ___
72
65
73
6
40
88.9
49
25.4
74
0
49
-12.7
74
0
49
25.4
74
0
49
-12.7
74
0
49
0
74
0
49
-12.7
74
0
0
LTYPE
5
41
330
5
100
AcDbSymbolTableRecord
100
AcDbLinetypeTableRecord
2
CENTER
70
0
3
Center ____ _ ____ _ ____ _ ____ _ ____ _ ____
72
65
73
4
40
50.8
49
31.75
74
0
49
-6.35
74
0
49
6.35
74
0
49
-6.35
74
0
0
LTYPE
5
42
330
5
100
AcDbSymbolTableRecord
100
AcDbLinetypeTableRecord
2
CENTER2
70
0
3
Center (.5x) ___ _ ___ _ ___ _ ___ _ ___ _ ___
72
65
73
4
40
28.575
49
19.05
74
0
49
-3.175
74
0
49
3.175
74
0
49
-3.175
74
0
0
LTYPE
5
43
330
5
100
AcDbSymbolTableRecord
100
AcDbLinetypeTableRecord
2
CENTERX2
70
0
3
Center (2x) ________  __  ________  __  _____
72
65
73
4
40
101.6
49
63.5
74
0
49
-12.7
74
0
49
12.7
74
0
49
-12.7
74
0
0
ENDTAB
0
TABLE
2
LAYER
5
2
330
0
100
AcDbSymbolTable
70
1
0
LAYER
5
10
330
2
100
AcDbSymbolTableRecord
100
AcDbLayerTableRecord
2
0
70
0
62
7
6
CONTINUOUS
370
0
390
F
0
LAYER
5
44
330
2
100
AcDbSymbolTableRecord
100
AcDbLayerTableRecord
2
Cone
70
0
62
7
6
CONTINUOUS
370
0
390
F
0
LAYER
5
45
330
2
100
AcDbSymbolTableRecord
100
AcDbLayerTableRecord
2
Helpers
70
1
62
3
6
CONTINUOUS
370
0
390
F
0
LAYER
5
46
330
2
100
AcDbSymbolTableRecord
100
AcDbLayerTableRecord
2
Hoop
70
5
62
7
6
CONTINUOUS
370
0
390
F
0
LAYER
5
47
330
2
100
AcDbSymbolTableRecord
100
AcDbLayerTableRecord
2
Groove
70
1
62
7
6
CONTINUOUS
370
0
390
F
0
LAYER
5
48
330
2
100
AcDbSymbolTableRecord
100
AcDbLayerTableRecord
2
Bar
70
1
62
7
6
CONTINUOUS
370
0
390
F
0
LAYER
5
49
330
2
100
AcDbSymbolTableRecord
100
AcDbLayerTableRecord
2
Helpers2
70
1
62
96
420
32768
6
CONTINUOUS
370
0
390
F
0
LAYER
5
4A
330
2
100
AcDbSymbolTableRecord
100
AcDbLayerTableRecord
2
Text
70
1
62
7
6
CONTINUOUS
370
0
390
F
0
LAYER
5
4B
330
2
100
AcDbSymbolTableRecord
100
AcDbLayerTableRecord
2
Visualization
70
1
62
7
6
CONTINUOUS
370
0
390
F
0
LAYER
5
4C
330
2
100
AcDbSymbolTableRecord
100
AcDbLayerTableRecord
2
Spring bundle
70
0
62
7
6
CONTINUOUS
370
0
390
F
0
ENDTAB
0
TABLE
2
STYLE
5
3
330
0
100
AcDbSymbolTable
70
3
0
STYLE
5
4D
330
2
100
AcDbSymbolTableRecord
100
AcDbTextStyleTableRecord
2
standard
70
0
40
0
41
1
50
0
71
0
42
1
3
standard
4

0
ENDTAB
0
TABLE
2
VIEW
5
6
330
0
100
AcDbSymbolTable
70
0
0
ENDTAB
0
TABLE
2
UCS
5
7
330
0
100
AcDbSymbolTable
70
0
0
ENDTAB
0
TABLE
2
APPID
5
9
330
0
100
AcDbSymbolTable
70
1
0
APPID
5
12
330
9
100
AcDbSymbolTableRecord
100
AcDbRegAppTableRecord
2
ACAD
70
0
0
ENDTAB
0
TABLE
2
DIMSTYLE
5
A
330
0
100
AcDbSymbolTable
70
1
100
AcDbDimStyleTable
71
1
0
DIMSTYLE
105
4E
330
A
100
AcDbSymbolTableRecord
100
AcDbDimStyleTableRecord
2
Standard
70
0
40
1
41
2.5
42
0.625
43
0.38
44
1.25
45
0
46
0
47
0
48
0
140
2.5
141
0.09
142
0
143
25.4
144
1
145
0
146
1
147
0.625
148
0
71
0
72
0
73
0
74
1
75
0
76
0
77
0
78
0
79
0
170
0
171
2
172
0
173
0
174
0
175
0
176
0
177
0
178
0
179
0
271
4
272
4
273
2
274
2
275
0
276
0
277
2
278
46
279
0
280
0
281
0
282
0
283
1
284
0
285
0
286
0
288
0
289
3
340
Standard
341

371
-2
372
-2
0
ENDTAB
0
TABLE
2
BLOCK_RECORD
5
1
330
0
100
AcDbSymbolTable
70
2
0
BLOCK_RECORD
5
1F
330
1
100
AcDbSymbolTableRecord
100
AcDbBlockTableRecord
2
*Model_Space
70
0
280
1
281
0
0
BLOCK_RECORD
5
1E
330
1
100
AcDbSymbolTableRecord
100
AcDbBlockTableRecord
2
*Paper_Space
70
0
280
1
281
0
0
ENDTAB
0
ENDSEC
0
SECTION
2
BLOCKS
0
BLOCK
5
20
330
1F
100
AcDbEntity
8
0
100
AcDbBlockBegin
2
*Model_Space
70
0
10
0
20
0
30
0
3
*Model_Space
1

0
ENDBLK
5
21
330
1F
100
AcDbEntity
8
0
100
AcDbBlockEnd
0
BLOCK
5
1C
330
1B
100
AcDbEntity
8
0
100
AcDbBlockBegin
2
*Paper_Space
70
0
10
0
20
0
30
0
3
*Paper_Space
1

0
ENDBLK
5
1D
330
1F
100
AcDbEntity
8
0
100
AcDbBlockEnd
0
ENDSEC
0
SECTION
2
ENTITIES
0
LINE
5
4F
100
AcDbEntity
8
Cone
6
ByLayer
62
256
370
-1
100
AcDbLine
10
0
20
0
11
-280
21
0
0
LINE
5
50
100
AcDbEntity
8
Cone
6
ByLayer
62
256
370
-1
100
AcDbLine
10
0
20
0
11
0
21
-20
0
LINE
5
51
100
AcDbEntity
8
Helpers
6
ByLayer
62
256
370
-1
100
AcDbLine
10
0
20
0
11
-44
21
0
0
LINE
5
52
100
AcDbEntity
8
Helpers
6
ByLayer
62
256
370
-1
100
AcDbLine
10
-44
20
0
11
-44
21
5
0
LINE
5
53
100
AcDbEntity
8
Hoop
6
ByLayer
62
256
370
-1
100
AcDbLine
10
-44
20
4
11
-48
21
4
0
LINE
5
54
100
AcDbEntity
8
Hoop
6
ByLayer
62
256
370
-1
100
AcDbLine
10
-48
20
4
11
-48
21
-22
0
LINE
5
55
100
AcDbEntity
8
Hoop
6
ByLayer
62
256
370
-1
100
AcDbLine
10
-48
20
-22
11
-44
21
-22
0
LINE
5
56
100
AcDbEntity
8
Hoop
6
ByLayer
62
256
370
-1
100
AcDbLine
10
-44
20
-22
11
-44
21
4
0
LINE
5
57
100
AcDbEntity
8
Groove
6
DASHED2
62
256
370
-1
100
AcDbLine
10
-280
20
-2.5
11
0
21
-4
0
LINE
5
58
100
AcDbEntity
8
Bar
6
ByLayer
62
256
370
-1
100
AcDbLine
10
-280
20
-2.5
11
-40.0132684646
21
-3.78564320465
0
LINE
5
59
100
AcDbEntity
8
Bar
6
ByLayer
62
256
370
-1
100
AcDbLine
10
-40.0132684646
20
-3.78564320465
11
-40.0132684646
21
4
0
LINE
5
5A
100
AcDbEntity
8
Bar
6
ByLayer
62
256
370
-1
100
AcDbLine
10
-40.0132684646
20
4
11
-40.0132684646
21
0
0
LINE
5
5B
100
AcDbEntity
8
Bar
6
ByLayer
62
256
370
-1
100
AcDbLine
10
-40.0132684646
20
4
11
-44
21
4
0
LINE
5
5C
100
AcDbEntity
8
Helpers
6
ByLayer
62
256
370
-1
100
AcDbLine
10
-280
20
0
11
-296
21
0
0
LINE
5
5D
100
AcDbEntity
8
Helpers
6
ByLayer
62
256
370
-1
100
AcDbLine
10
-296
20
0
11
-296
21
-24
0
LINE
5
5E
100
AcDbEntity
8
Helpers
6
ByLayer
62
256
370
-1
100
AcDbLine
10
-296
20
-24
11
-280
21
-24
0
LINE
5
5F
100
AcDbEntity
8
Helpers
6
ByLayer
62
256
370
-1
100
AcDbLine
10
-280
20
-24
11
-280
21
0
0
LINE
5
60
100
AcDbEntity
8
Helpers
6
ByLayer
62
256
370
-1
100
AcDbLine
10
-280
20
0
11
-280
21
-16
0
LINE
5
61
100
AcDbEntity
8
Helpers
6
ByLayer
62
256
370
-1
100
AcDbLine
10
-280
20
0
11
-288
21
-16
0
CIRCLE
5
62
100
AcDbEntity
8
Helpers
6
ByLayer
62
256
370
-1
100
AcDbCircle
10
-288
20
-16
40
4
0
CIRCLE
5
63
100
AcDbEntity
8
Helpers2
6
ByLayer
62
256
370
-1
100
AcDbCircle
10
-291.997886143
20
-15.869975437
40
4
0
CIRCLE
5
64
100
AcDbEntity
8
Helpers2
6
ByLayer
62
256
370
-1
100
AcDbCircle
10
-284.000776891
20
-16.0788322546
40
4
0
CIRCLE
5
65
100
AcDbEntity
8
Helpers
6
ByLayer
62
256
370
-1
100
AcDbCircle
10
-288
20
-16
40
7.5
0
ARC
5
66
100
AcDbEntity
8
Bar
6
ByLayer
62
256
370
-1
100
AcDbCircle
10
-288
20
-16
40
4
100
AcDbArc
50
103.560739698
51
4.82967307258e-06
0
ARC
5
67
100
AcDbEntity
8
Bar
6
ByLayer
62
256
370
-1
100
AcDbCircle
10
-288
20
-16
40
7.5
100
AcDbArc
50
103.560739698
51
270.148544162
0
LINE
5
68
100
AcDbEntity
8
Bar
6
ByLayer
62
256
370
-1
100
AcDbLine
10
-289.75857037
20
-8.70908577382
11
-288.937904197
21
-12.1115124127
0
ARC
5
69
100
AcDbEntity
8
Bar
6
ByLayer
62
256
370
-1
100
AcDbCircle
10
-288
20
-16
40
7.5
100
AcDbArc
50
270.148544162
51
359.674687058
0
LINE
5
6A
100
AcDbEntity
8
Bar
6
ByLayer
62
256
370
-1
100
AcDbLine
10
-280
20
1
11
-283.5
21
1
0
LINE
5
6B
100
AcDbEntity
8
Bar
6
ByLayer
62
256
370
-1
100
AcDbLine
10
-283.5
20
1
11
-284
21
-16.1159350359
0
LINE
5
6C
100
AcDbEntity
8
Bar
6
ByLayer
62
256
370
-1
100
AcDbLine
10
-280
20
-2.5
11
-280.500120889
21
-16.0425831358
0
LINE
5
6D
100
AcDbEntity
8
Cone
6
ByLayer
62
256
370
-1
100
AcDbLine
10
-280
20
0
11
-280
21
-10
0
LINE
5
6E
100
AcDbEntity
8
Bar
6
ByLayer
62
256
370
-1
100
AcDbLine
10
-44
20
4
11
-44
21
0.0167136548538
0
LINE
5
6F
100
AcDbEntity
8
Bar
6
ByLayer
62
256
370
-1
100
AcDbLine
10
-44
20
0.0167136548538
11
-280
21
1
0
LINE
5
70
100
AcDbEntity
8
Helpers
6
ByLayer
62
256
370
-1
100
AcDbLine
10
0
20
-30
11
-280
21
-30
0
LINE
5
71
100
AcDbEntity
8
Helpers
6
ByLayer
62
256
370
-1
100
AcDbLine
10
0
20
-30
11
0
21
-19.976910828
0
LINE
5
72
100
AcDbEntity
8
Helpers
6
ByLayer
62
256
370
-1
100
AcDbLine
10
-280
20
-30
11
-280
21
-10
0
LINE
5
73
100
AcDbEntity
8
Helpers2
6
ByLayer
62
256
370
-1
100
AcDbLine
10
-280
20
0
11
0
21
-20
0
LINE
5
74
100
AcDbEntity
8
Helpers2
6
ByLayer
62
256
370
-1
100
AcDbLine
10
-40
20
-0
11
-40
21
-19.5
0
LINE
5
75
100
AcDbEntity
8
Helpers2
6
ByLayer
62
256
370
-1
100
AcDbLine
10
-80
20
-0
11
-80
21
-18.8
0
LINE
5
76
100
AcDbEntity
8
Helpers2
6
ByLayer
62
256
370
-1
100
AcDbLine
10
-120
20
-0
11
-120
21
-18
0
LINE
5
77
100
AcDbEntity
8
Helpers2
6
ByLayer
62
256
370
-1
100
AcDbLine
10
-140
20
-0
11
-140
21
-17.5
0
LINE
5
78
100
AcDbEntity
8
Helpers2
6
ByLayer
62
256
370
-1
100
AcDbLine
10
-160
20
-0
11
-160
21
-16.9
0
LINE
5
79
100
AcDbEntity
8
Helpers2
6
ByLayer
62
256
370
-1
100
AcDbLine
10
-180
20
-0
11
-180
21
-16.1
0
LINE
5
7A
100
AcDbEntity
8
Helpers2
6
ByLayer
62
256
370
-1
100
AcDbLine
10
-200
20
-0
11
-200
21
-15.3
0
LINE
5
7B
100
AcDbEntity
8
Helpers2
6
ByLayer
62
256
370
-1
100
AcDbLine
10
-220
20
-0
11
-220
21
-14.1
0
LINE
5
7C
100
AcDbEntity
8
Helpers2
6
ByLayer
62
256
370
-1
100
AcDbLine
10
-220
20
-0
11
-220
21
-12.6
0
LINE
5
7D
100
AcDbEntity
8
Helpers2
6
ByLayer
62
256
370
-1
100
AcDbLine
10
-240
20
-0
11
-240
21
-12.6
0
LINE
5
7E
100
AcDbEntity
8
Helpers2
6
ByLayer
62
256
370
-1
100
AcDbLine
10
-260
20
-0
11
-260
21
-10.2
0
LINE
5
7F
100
AcDbEntity
8
Helpers2
6
ByLayer
62
256
370
-1
100
AcDbLine
10
-270
20
-0
11
-270
21
-10
0
LINE
5
80
100
AcDbEntity
8
Helpers2
6
ByLayer
62
256
370
-1
100
AcDbLine
10
-280
20
-0
11
-280
21
-10
0
LINE
5
81
100
AcDbEntity
8
Cone
6
ByLayer
62
256
370
-1
100
AcDbLine
10
0
20
-20
11
-40
21
-19.5
0
LINE
5
82
100
AcDbEntity
8
Cone
6
ByLayer
62
256
370
-1
100
AcDbLine
10
-40
20
-19.5
11
-80
21
-18.8
0
LINE
5
83
100
AcDbEntity
8
Cone
6
ByLayer
62
256
370
-1
100
AcDbLine
10
-80
20
-18.8
11
-120
21
-18
0
LINE
5
84
100
AcDbEntity
8
Cone
6
ByLayer
62
256
370
-1
100
AcDbLine
10
-120
20
-18
11
-140
21
-17.5
0
LINE
5
85
100
AcDbEntity
8
Cone
6
ByLayer
62
256
370
-1
100
AcDbLine
10
-140
20
-17.5
11
-160
21
-16.9
0
LINE
5
86
100
AcDbEntity
8
Cone
6
ByLayer
62
256
370
-1
100
AcDbLine
10
-160
20
-16.9
11
-180
21
-16.1
0
LINE
5
87
100
AcDbEntity
8
Cone
6
ByLayer
62
256
370
-1
100
AcDbLine
10
-180
20
-16.1
11
-200
21
-15.3
0
LINE
5
88
100
AcDbEntity
8
Cone
6
ByLayer
62
256
370
-1
100
AcDbLine
10
-200
20
-15.3
11
-220
21
-14.1
0
LINE
5
89
100
AcDbEntity
8
Cone
6
ByLayer
62
256
370
-1
100
AcDbLine
10
-220
20
-14.1
11
-240
21
-12.6
0
LINE
5
8A
100
AcDbEntity
8
Cone
6
ByLayer
62
256
370
-1
100
AcDbLine
10
-240
20
-12.6
11
-260
21
-10.2
0
LINE
5
8B
100
AcDbEntity
8
Cone
6
ByLayer
62
256
370
-1
100
AcDbLine
10
-260
20
-10.2
11
-270
21
-10
0
LINE
5
8C
100
AcDbEntity
8
Cone
6
ByLayer
62
256
370
-1
100
AcDbLine
10
-270
20
-10
11
-280
21
-10
0
LINE
5
8D
100
AcDbEntity
8
Helpers2
6
ByLayer
62
256
370
-1
100
AcDbLine
10
0
20
30
11
-280
21
30
0
MTEXT
5
8E
100
AcDbEntity
8
Visualization
6
ByLayer
62
256
370
-1
100
AcDbMText
10
-270
20
54
30
0
40
2
41
19.5
71
1
72
1
1
Width: ~10.7mm
7
standard
210
0
220
0
230
1
50
0
73
2
44
1
0
MTEXT
5
8F
100
AcDbEntity
8
Visualization
6
ByLayer
62
256
370
-1
100
AcDbMText
10
-270
20
50
30
0
40
2
41
29
71
1
72
1
1
Optimal width: ~1.4mm
7
standard
210
0
220
0
230
1
50
0
73
2
44
1
0
MTEXT
5
90
100
AcDbEntity
8
Visualization
6
ByLayer
62
256
370
-1
100
AcDbMText
10
-270
20
45
30
0
40
2
41
23.8888899175
71
1
72
1
1
Times optimal: 7.5
7
standard
210
0
220
0
230
1
50
0
73
2
44
1
0
MTEXT
5
91
100
AcDbEntity
8
Visualization
6
ByLayer
62
256
370
-1
100
AcDbMText
10
-150
20
54
30
0
40
2
41
15.7222222222
71
1
72
1
1
Width: 15mm
7
standard
210
0
220
0
230
1
50
0
73
2
44
1
0
MTEXT
5
92
100
AcDbEntity
8
Visualization
6
ByLayer
62
256
370
-1
100
AcDbMText
10
-150
20
50
30
0
40
2
41
26.5555555556
71
1
72
1
1
Optimal width: 10mm
7
standard
210
0
220
0
230
1
50
0
73
2
44
1
0
MTEXT
5
93
100
AcDbEntity
8
Visualization
6
ByLayer
62
256
370
-1
100
AcDbMText
10
-150
20
45
30
0
40
2
41
23.444445473
71
1
72
1
1
Times optimal: 1.5
7
standard
210
0
220
0
230
1
50
0
73
2
44
1
0
LINE
5
94
100
AcDbEntity
8
Visualization
6
ByLayer
62
256
370
-1
100
AcDbLine
10
0
20
40
11
0
21
20
0
LINE
5
95
100
AcDbEntity
8
Cone
6
ByLayer
62
256
370
-1
100
AcDbLine
10
0
20
20
11
1.22464679915e-15
21
40
0
LINE
5
96
100
AcDbEntity
8
Cone
6
ByLayer
62
256
370
-1
100
AcDbLine
10
-280
20
25
11
0
21
20
0
LINE
5
97
100
AcDbEntity
8
Cone
6
ByLayer
62
256
370
-1
100
AcDbLine
10
-280
20
35
11
1.22464679915e-15
21
40
0
LINE
5
98
100
AcDbEntity
8
Cone
6
ByLayer
62
256
370
-1
100
AcDbLine
10
-280
20
35
11
-280
21
25
0
MTEXT
5
99
100
AcDbEntity
8
Visualization
6
ByLayer
62
256
370
-1
100
AcDbMText
10
-10
20
54
30
0
40
2
41
16.1666666667
71
1
72
1
1
Width: 20mm
7
standard
210
0
220
0
230
1
50
0
73
2
44
1
0
MTEXT
5
9A
100
AcDbEntity
8
Visualization
6
ByLayer
62
256
370
-1
100
AcDbMText
10
-10
20
50
30
0
40
2
41
27
71
1
72
1
1
Optimal width: 20mm
7
standard
210
0
220
0
230
1
50
0
73
2
44
1
0
MTEXT
5
9B
100
AcDbEntity
8
Visualization
6
ByLayer
62
256
370
-1
100
AcDbMText
10
-10
20
45
30
0
40
2
41
21.2222232508
71
1
72
1
1
Times optimal: 1
7
standard
210
0
220
0
230
1
50
0
73
2
44
1
0
LINE
5
9C
100
AcDbEntity
8
Cone
6
ByLayer
62
256
370
-1
100
AcDbLine
10
0
20
60
11
-280
21
60
0
LINE
5
9D
100
AcDbEntity
8
Cone
6
ByLayer
62
256
370
-1
100
AcDbLine
10
-280
20
60
11
-280
21
80
0
LINE
5
9E
100
AcDbEntity
8
Cone
6
ByLayer
62
256
370
-1
100
AcDbLine
10
-280
20
80
11
0
21
80
0
LINE
5
9F
100
AcDbEntity
8
Cone
6
ByLayer
62
256
370
-1
100
AcDbLine
10
0
20
80
11
0
21
60
0
LINE
5
A0
100
AcDbEntity
8
Helpers2
6
ByLayer
62
256
370
-1
100
AcDbLine
10
-270
20
-30
11
-270
21
100
0
LINE
5
A1
100
AcDbEntity
8
Helpers2
6
ByLayer
62
256
370
-1
100
AcDbLine
10
-260
20
-30
11
-260
21
100
0
LINE
5
A2
100
AcDbEntity
8
Helpers2
6
ByLayer
62
256
370
-1
100
AcDbLine
10
-240
20
-30
11
-240
21
100
0
LINE
5
A3
100
AcDbEntity
8
Helpers2
6
ByLayer
62
256
370
-1
100
AcDbLine
10
-220
20
-30
11
-220
21
100
0
LINE
5
A4
100
AcDbEntity
8
Helpers2
6
ByLayer
62
256
370
-1
100
AcDbLine
10
-200
20
-30
11
-200
21
100
0
LINE
5
A5
100
AcDbEntity
8
Helpers2
6
ByLayer
62
256
370
-1
100
AcDbLine
10
-180
20
-30
11
-180
21
100
0
LINE
5
A6
100
AcDbEntity
8
Helpers2
6
ByLayer
62
256
370
-1
100
AcDbLine
10
-160
20
-30
11
-160
21
100
0
LINE
5
A7
100
AcDbEntity
8
Helpers2
6
ByLayer
62
256
370
-1
100
AcDbLine
10
-140
20
100
11
-140
21
-30
0
LINE
5
A8
100
AcDbEntity
8
Helpers2
6
ByLayer
62
256
370
-1
100
AcDbLine
10
-120
20
-30
11
-120
21
100
0
LINE
5
A9
100
AcDbEntity
8
Helpers2
6
ByLayer
62
256
370
-1
100
AcDbLine
10
-80
20
-30
11
-80
21
100
0
LINE
5
AA
100
AcDbEntity
8
Helpers2
6
ByLayer
62
256
370
-1
100
AcDbLine
10
-40
20
-30
11
-40
21
100
0
CIRCLE
5
AB
100
AcDbEntity
8
Spring bundle
6
ByLayer
62
256
370
-1
100
AcDbCircle
10
-38
20
-21.6
40
2
0
CIRCLE
5
AC
100
AcDbEntity
8
Spring bundle
6
ByLayer
62
256
370
-1
100
AcDbCircle
10
-40
20
-25
40
2
0
CIRCLE
5
AD
100
AcDbEntity
8
Spring bundle
6
ByLayer
62
256
370
-1
100
AcDbCircle
10
-36
20
-25
40
2
0
CIRCLE
5
AE
100
AcDbEntity
8
Spring bundle
6
ByLayer
62
256
370
-1
100
AcDbCircle
10
-34
20
-21.6
40
2
0
CIRCLE
5
AF
100
AcDbEntity
8
Spring bundle
6
ByLayer
62
256
370
-1
100
AcDbCircle
10
-30
20
-21.6
40
2
0
CIRCLE
5
B0
100
AcDbEntity
8
Spring bundle
6
ByLayer
62
256
370
-1
100
AcDbCircle
10
-32
20
-25
40
2
0
CIRCLE
5
B1
100
AcDbEntity
8
Spring bundle
6
ByLayer
62
256
370
-1
100
AcDbCircle
10
-38
20
-28.5
40
2
0
CIRCLE
5
B2
100
AcDbEntity
8
Spring bundle
6
ByLayer
62
256
370
-1
100
AcDbCircle
10
-33.9
20
-28.5
40
2
0
CIRCLE
5
B3
100
AcDbEntity
8
Spring bundle
6
ByLayer
62
256
370
-1
100
AcDbCircle
10
-26
20
-21.7
40
2
0
CIRCLE
5
B4
100
AcDbEntity
8
Spring bundle
6
ByLayer
62
256
370
-1
100
AcDbCircle
10
-28
20
-25.2
40
2
0
CIRCLE
5
B5
100
AcDbEntity
8
Spring bundle
6
ByLayer
62
256
370
-1
100
AcDbCircle
10
-29.9
20
-28.7
40
2
0
CIRCLE
5
B6
100
AcDbEntity
8
Spring bundle
6
ByLayer
62
256
370
-1
100
AcDbCircle
10
-42
20
-21.5
40
2
0
LINE
5
B7
100
AcDbEntity
8
Helpers2
6
ByLayer
62
256
370
-1
100
AcDbLine
10
-280
20
-30
11
-280
21
100
0
MTEXT
5
B8
100
AcDbEntity
8
Text
6
ByLayer
62
256
370
-1
100
AcDbMText
10
0
20
-50
30
0
40
3
41
4
71
1
72
1
1
1.0
7
standard
210
0
220
0
230
1
50
0
73
2
44
1
0
MTEXT
5
B9
100
AcDbEntity
8
Text
6
ByLayer
62
256
370
-1
100
AcDbMText
10
-40
20
-50
30
0
40
3
41
9.33333333333
71
1
72
1
1
0.857
7
standard
210
0
220
0
230
1
50
0
73
2
44
1
0
MTEXT
5
BA
100
AcDbEntity
8
Text
6
ByLayer
62
256
370
-1
100
AcDbMText
10
-80
20
-50
30
0
40
3
41
9
71
1
72
1
1
0.714
7
standard
210
0
220
0
230
1
50
0
73
2
44
1
0
MTEXT
5
BB
100
AcDbEntity
8
Text
6
ByLayer
62
256
370
-1
100
AcDbMText
10
-120
20
-50
30
0
40
3
41
8.66666666667
71
1
72
1
1
0.571
7
standard
210
0
220
0
230
1
50
0
73
2
44
1
0
MTEXT
5
BC
100
AcDbEntity
8
Text
6
ByLayer
62
256
370
-1
100
AcDbMText
10
-140
20
-50
30
0
40
3
41
9.33333333333
71
1
72
1
1
0.500
7
standard
210
0
220
0
230
1
50
0
73
2
44
1
0
MTEXT
5
BD
100
AcDbEntity
8
Text
6
ByLayer
62
256
370
-1
100
AcDbMText
10
-160
20
-50
30
0
40
3
41
9.66666666667
71
1
72
1
1
0.429
7
standard
210
0
220
0
230
1
50
0
73
2
44
1
0
MTEXT
5
BE
100
AcDbEntity
8
Text
6
ByLayer
62
256
370
-1
100
AcDbMText
10
-180
20
-50
30
0
40
3
41
9.33333333333
71
1
72
1
1
0.357
7
standard
210
0
220
0
230
1
50
0
73
2
44
1
0
MTEXT
5
BF
100
AcDbEntity
8
Text
6
ByLayer
62
256
370
-1
100
AcDbMText
10
-200
20
-50
30
0
40
3
41
9.33333333333
71
1
72
1
1
0.286
7
standard
210
0
220
0
230
1
50
0
73
2
44
1
0
MTEXT
5
C0
100
AcDbEntity
8
Text
6
ByLayer
62
256
370
-1
100
AcDbMText
10
-220
20
-50
30
0
40
3
41
9
71
1
72
1
1
0.214
7
standard
210
0
220
0
230
1
50
0
73
2
44
1
0
MTEXT
5
C1
100
AcDbEntity
8
Text
6
ByLayer
62
256
370
-1
100
AcDbMText
10
-240
20
-50
30
0
40
3
41
9
71
1
72
1
1
0.143
7
standard
210
0
220
0
230
1
50
0
73
2
44
1
0
MTEXT
5
C2
100
AcDbEntity
8
Text
6
ByLayer
62
256
370
-1
100
AcDbMText
10
-272
20
-50
30
0
40
3
41
9.33333333333
71
1
72
1
1
0.036
7
standard
210
0
220
0
230
1
50
0
73
2
44
1
0
MTEXT
5
C3
100
AcDbEntity
8
Text
6
ByLayer
62
256
370
-1
100
AcDbMText
10
-259
20
-50
30
0
40
3
41
8.66666666667
71
1
72
1
1
0.071
7
standard
210
0
220
0
230
1
50
0
73
2
44
1
0
MTEXT
5
C4
100
AcDbEntity
8
Text
6
ByLayer
62
256
370
-1
100
AcDbMText
10
20
20
-50
30
0
40
3
41
34.25
71
1
72
1
1
Exerted leverage
7
standard
210
0
220
0
230
1
50
0
73
2
44
1
0
MTEXT
5
C5
100
AcDbEntity
8
Text
6
ByLayer
62
256
370
-1
100
AcDbMText
10
20
20
-60
30
0
40
3
41
10.3333333333
71
1
72
1
1
Width
7
standard
210
0
220
0
230
1
50
0
73
2
44
1
0
MTEXT
5
C6
100
AcDbEntity
8
Text
6
ByLayer
62
256
370
-1
100
AcDbMText
10
-80
20
-70
30
0
40
3
41
8.66666666667
71
1
72
1
1
1.200
7
standard
210
0
220
0
230
1
50
0
73
2
44
1
0
MTEXT
5
C7
100
AcDbEntity
8
Text
6
ByLayer
62
256
370
-1
100
AcDbMText
10
-120
20
-70
30
0
40
3
41
8.66666666667
71
1
72
1
1
1.375
7
standard
210
0
220
0
230
1
50
0
73
2
44
1
0
MTEXT
5
C8
100
AcDbEntity
8
Text
6
ByLayer
62
256
370
-1
100
AcDbMText
10
-140
20
-70
30
0
40
3
41
8.66666666667
71
1
72
1
1
1.500
7
standard
210
0
220
0
230
1
50
0
73
2
44
1
0
MTEXT
5
C9
100
AcDbEntity
8
Text
6
ByLayer
62
256
370
-1
100
AcDbMText
10
-160
20
-70
30
0
40
3
41
8.66666666667
71
1
72
1
1
1.666
7
standard
210
0
220
0
230
1
50
0
73
2
44
1
0
MTEXT
5
CA
100
AcDbEntity
8
Text
6
ByLayer
62
256
370
-1
100
AcDbMText
10
-180
20
-70
30
0
40
3
41
8.66666666667
71
1
72
1
1
1.900
7
standard
210
0
220
0
230
1
50
0
73
2
44
1
0
MTEXT
5
CB
100
AcDbEntity
8
Text
6
ByLayer
62
256
370
-1
100
AcDbMText
10
-200
20
-70
30
0
40
3
41
9.33333333333
71
1
72
1
1
2.250
7
standard
210
0
220
0
230
1
50
0
73
2
44
1
0
MTEXT
5
CC
100
AcDbEntity
8
Text
6
ByLayer
62
256
370
-1
100
AcDbMText
10
-220
20
-70
30
0
40
3
41
9.33333333333
71
1
72
1
1
2.833
7
standard
210
0
220
0
230
1
50
0
73
2
44
1
0
MTEXT
5
CD
100
AcDbEntity
8
Text
6
ByLayer
62
256
370
-1
100
AcDbMText
10
-240
20
-70
30
0
40
3
41
9.66666666667
71
1
72
1
1
4.000
7
standard
210
0
220
0
230
1
50
0
73
2
44
1
0
MTEXT
5
CE
100
AcDbEntity
8
Text
6
ByLayer
62
256
370
-1
100
AcDbMText
10
-260
20
-70
30
0
40
3
41
9.33333333333
71
1
72
1
1
7.500
7
standard
210
0
220
0
230
1
50
0
73
2
44
1
0
MTEXT
5
CF
100
AcDbEntity
8
Text
6
ByLayer
62
256
370
-1
100
AcDbMText
10
-80
20
-80
30
0
40
3
41
9
71
1
72
1
1
0.941
7
standard
210
0
220
0
230
1
50
0
73
2
44
1
0
MTEXT
5
D0
100
AcDbEntity
8
Text
6
ByLayer
62
256
370
-1
100
AcDbMText
10
-120
20
-80
30
0
40
3
41
9.33333333333
71
1
72
1
1
0.899
7
standard
210
0
220
0
230
1
50
0
73
2
44
1
0
MTEXT
5
D1
100
AcDbEntity
8
Text
6
ByLayer
62
256
370
-1
100
AcDbMText
10
-140
20
-80
30
0
40
3
41
9.66666666667
71
1
72
1
1
0.874
7
standard
210
0
220
0
230
1
50
0
73
2
44
1
0
MTEXT
5
D2
100
AcDbEntity
8
Text
6
ByLayer
62
256
370
-1
100
AcDbMText
10
-160
20
-80
30
0
40
3
41
9.66666666667
71
1
72
1
1
0.843
7
standard
210
0
220
0
230
1
50
0
73
2
44
1
0
MTEXT
5
D3
100
AcDbEntity
8
Text
6
ByLayer
62
256
370
-1
100
AcDbMText
10
-180
20
-80
30
0
40
3
41
9.33333333333
71
1
72
1
1
0.807
7
standard
210
0
220
0
230
1
50
0
73
2
44
1
0
MTEXT
5
D4
100
AcDbEntity
8
Text
6
ByLayer
62
256
370
-1
100
AcDbMText
10
-200
20
-80
30
0
40
3
41
9.33333333333
71
1
72
1
1
0.763
7
standard
210
0
220
0
230
1
50
0
73
2
44
1
0
MTEXT
5
D5
100
AcDbEntity
8
Text
6
ByLayer
62
256
370
-1
100
AcDbMText
10
-220
20
-80
30
0
40
3
41
9.33333333333
71
1
72
1
1
0.707
7
standard
210
0
220
0
230
1
50
0
73
2
44
1
0
MTEXT
5
D6
100
AcDbEntity
8
Text
6
ByLayer
62
256
370
-1
100
AcDbMText
10
-240
20
-80
30
0
40
3
41
9.33333333333
71
1
72
1
1
0.630
7
standard
210
0
220
0
230
1
50
0
73
2
44
1
0
MTEXT
5
D7
100
AcDbEntity
8
Text
6
ByLayer
62
256
370
-1
100
AcDbMText
10
-260
20
-80
30
0
40
3
41
8
71
1
72
1
1
0.511
7
standard
210
0
220
0
230
1
50
0
73
2
44
1
0
MTEXT
5
D8
100
AcDbEntity
8
Text
6
ByLayer
62
256
370
-1
100
AcDbMText
10
20
20
-40
30
0
40
3
41
50.0833360857
71
1
72
1
1
Distance from base (mm)
7
standard
210
0
220
0
230
1
50
0
73
2
44
1
0
MTEXT
5
D9
100
AcDbEntity
8
Text
6
ByLayer
62
256
370
-1
100
AcDbMText
10
0
20
-40
30
0
40
3
41
1.33333333333
71
1
72
1
1
0
7
standard
210
0
220
0
230
1
50
0
73
2
44
1
0
MTEXT
5
DA
100
AcDbEntity
8
Text
6
ByLayer
62
256
370
-1
100
AcDbMText
10
-40
20
-40
30
0
40
3
41
4
71
1
72
1
1
40
7
standard
210
0
220
0
230
1
50
0
73
2
44
1
0
MTEXT
5
DB
100
AcDbEntity
8
Text
6
ByLayer
62
256
370
-1
100
AcDbMText
10
-80
20
-40
30
0
40
3
41
3.66666666667
71
1
72
1
1
80
7
standard
210
0
220
0
230
1
50
0
73
2
44
1
0
MTEXT
5
DC
100
AcDbEntity
8
Text
6
ByLayer
62
256
370
-1
100
AcDbMText
10
-120
20
-40
30
0
40
3
41
5.33333333333
71
1
72
1
1
120
7
standard
210
0
220
0
230
1
50
0
73
2
44
1
0
MTEXT
5
DD
100
AcDbEntity
8
Text
6
ByLayer
62
256
370
-1
100
AcDbMText
10
-140
20
-40
30
0
40
3
41
5.66666666667
71
1
72
1
1
140
7
standard
210
0
220
0
230
1
50
0
73
2
44
1
0
MTEXT
5
DE
100
AcDbEntity
8
Text
6
ByLayer
62
256
370
-1
100
AcDbMText
10
-160
20
-40
30
0
40
3
41
5.33333333333
71
1
72
1
1
160
7
standard
210
0
220
0
230
1
50
0
73
2
44
1
0
MTEXT
5
DF
100
AcDbEntity
8
Text
6
ByLayer
62
256
370
-1
100
AcDbMText
10
-180
20
-40
30
0
40
3
41
5.33333333333
71
1
72
1
1
180
7
standard
210
0
220
0
230
1
50
0
73
2
44
1
0
MTEXT
5
E0
100
AcDbEntity
8
Text
6
ByLayer
62
256
370
-1
100
AcDbMText
10
-200
20
-40
30
0
40
3
41
6
71
1
72
1
1
200
7
standard
210
0
220
0
230
1
50
0
73
2
44
1
0
MTEXT
5
E1
100
AcDbEntity
8
Text
6
ByLayer
62
256
370
-1
100
AcDbMText
10
-220
20
-40
30
0
40
3
41
6
71
1
72
1
1
220
7
standard
210
0
220
0
230
1
50
0
73
2
44
1
0
MTEXT
5
E2
100
AcDbEntity
8
Text
6
ByLayer
62
256
370
-1
100
AcDbMText
10
-240
20
-40
30
0
40
3
41
6.33333333333
71
1
72
1
1
240
7
standard
210
0
220
0
230
1
50
0
73
2
44
1
0
MTEXT
5
E3
100
AcDbEntity
8
Text
6
ByLayer
62
256
370
-1
100
AcDbMText
10
-260
20
-40
30
0
40
3
41
6
71
1
72
1
1
260
7
standard
210
0
220
0
230
1
50
0
73
2
44
1
0
MTEXT
5
E4
100
AcDbEntity
8
Text
6
ByLayer
62
256
370
-1
100
AcDbMText
10
-274
20
-40
30
0
40
3
41
6
71
1
72
1
1
270
7
standard
210
0
220
0
230
1
50
0
73
2
44
1
0
MTEXT
5
E5
100
AcDbEntity
8
Text
6
ByLayer
62
256
370
-1
100
AcDbMText
10
-272
20
-60
30
0
40
3
41
3
71
1
72
1
1
10
7
standard
210
0
220
0
230
1
50
0
73
2
44
1
0
MTEXT
5
E6
100
AcDbEntity
8
Text
6
ByLayer
62
256
370
-1
100
AcDbMText
10
-260
20
-60
30
0
40
3
41
6.33333333333
71
1
72
1
1
10.7
7
standard
210
0
220
0
230
1
50
0
73
2
44
1
0
MTEXT
5
E7
100
AcDbEntity
8
Text
6
ByLayer
62
256
370
-1
100
AcDbMText
10
-240
20
-60
30
0
40
3
41
6
71
1
72
1
1
11.4
7
standard
210
0
220
0
230
1
50
0
73
2
44
1
0
MTEXT
5
E8
100
AcDbEntity
8
Text
6
ByLayer
62
256
370
-1
100
AcDbMText
10
-220
20
-60
30
0
40
3
41
5.66666666667
71
1
72
1
1
12.1
7
standard
210
0
220
0
230
1
50
0
73
2
44
1
0
MTEXT
5
E9
100
AcDbEntity
8
Text
6
ByLayer
62
256
370
-1
100
AcDbMText
10
-200
20
-60
30
0
40
3
41
6.33333333333
71
1
72
1
1
12.8
7
standard
210
0
220
0
230
1
50
0
73
2
44
1
0
MTEXT
5
EA
100
AcDbEntity
8
Text
6
ByLayer
62
256
370
-1
100
AcDbMText
10
-180
20
-60
30
0
40
3
41
6.33333333333
71
1
72
1
1
13.6
7
standard
210
0
220
0
230
1
50
0
73
2
44
1
0
MTEXT
5
EB
100
AcDbEntity
8
Text
6
ByLayer
62
256
370
-1
100
AcDbMText
10
-160
20
-60
30
0
40
3
41
6.66666666667
71
1
72
1
1
14.3
7
standard
210
0
220
0
230
1
50
0
73
2
44
1
0
MTEXT
5
EC
100
AcDbEntity
8
Text
6
ByLayer
62
256
370
-1
100
AcDbMText
10
-140
20
-60
30
0
40
3
41
3
71
1
72
1
1
15
7
standard
210
0
220
0
230
1
50
0
73
2
44
1
0
MTEXT
5
ED
100
AcDbEntity
8
Text
6
ByLayer
62
256
370
-1
100
AcDbMText
10
-120
20
-60
30
0
40
3
41
6.33333333333
71
1
72
1
1
15.7
7
standard
210
0
220
0
230
1
50
0
73
2
44
1
0
MTEXT
5
EE
100
AcDbEntity
8
Text
6
ByLayer
62
256
370
-1
100
AcDbMText
10
-80
20
-60
30
0
40
3
41
5.66666666667
71
1
72
1
1
17.1
7
standard
210
0
220
0
230
1
50
0
73
2
44
1
0
MTEXT
5
EF
100
AcDbEntity
8
Text
6
ByLayer
62
256
370
-1
100
AcDbMText
10
-40
20
-60
30
0
40
3
41
6.33333333333
71
1
72
1
1
18.6
7
standard
210
0
220
0
230
1
50
0
73
2
44
1
0
MTEXT
5
F0
100
AcDbEntity
8
Text
6
ByLayer
62
256
370
-1
100
AcDbMText
10
0
20
-60
30
0
40
3
41
3.66666666667
71
1
72
1
1
20
7
standard
210
0
220
0
230
1
50
0
73
2
44
1
0
MTEXT
5
F1
100
AcDbEntity
8
Text
6
ByLayer
62
256
370
-1
100
AcDbMText
10
0
20
-90
30
0
40
3
41
3.66666666667
71
1
72
1
1
20
7
standard
210
0
220
0
230
1
50
0
73
2
44
1
0
MTEXT
5
F2
100
AcDbEntity
8
Text
6
ByLayer
62
256
370
-1
100
AcDbMText
10
-40
20
-90
30
0
40
3
41
6.33333333333
71
1
72
1
1
19.5
7
standard
210
0
220
0
230
1
50
0
73
2
44
1
0
MTEXT
5
F3
100
AcDbEntity
8
Text
6
ByLayer
62
256
370
-1
100
AcDbMText
10
-80
20
-90
30
0
40
3
41
6.33333333333
71
1
72
1
1
18.8
7
standard
210
0
220
0
230
1
50
0
73
2
44
1
0
MTEXT
5
F4
100
AcDbEntity
8
Text
6
ByLayer
62
256
370
-1
100
AcDbMText
10
-120
20
-90
30
0
40
3
41
6.33333333333
71
1
72
1
1
18.0
7
standard
210
0
220
0
230
1
50
0
73
2
44
1
0
MTEXT
5
F5
100
AcDbEntity
8
Text
6
ByLayer
62
256
370
-1
100
AcDbMText
10
-160
20
-90
30
0
40
3
41
6.33333333333
71
1
72
1
1
16.9
7
standard
210
0
220
0
230
1
50
0
73
2
44
1
0
MTEXT
5
F6
100
AcDbEntity
8
Text
6
ByLayer
62
256
370
-1
100
AcDbMText
10
-180
20
-90
30
0
40
3
41
5.66666666667
71
1
72
1
1
16.1
7
standard
210
0
220
0
230
1
50
0
73
2
44
1
0
MTEXT
5
F7
100
AcDbEntity
8
Text
6
ByLayer
62
256
370
-1
100
AcDbMText
10
-200
20
-90
30
0
40
3
41
6.33333333333
71
1
72
1
1
15.3
7
standard
210
0
220
0
230
1
50
0
73
2
44
1
0
MTEXT
5
F8
100
AcDbEntity
8
Text
6
ByLayer
62
256
370
-1
100
AcDbMText
10
-140
20
-90
30
0
40
3
41
6.33333333333
71
1
72
1
1
17.5
7
standard
210
0
220
0
230
1
50
0
73
2
44
1
0
MTEXT
5
F9
100
AcDbEntity
8
Text
6
ByLayer
62
256
370
-1
100
AcDbMText
10
-220
20
-90
30
0
40
3
41
6
71
1
72
1
1
14.1
7
standard
210
0
220
0
230
1
50
0
73
2
44
1
0
MTEXT
5
FA
100
AcDbEntity
8
Text
6
ByLayer
62
256
370
-1
100
AcDbMText
10
-240
20
-90
30
0
40
3
41
6.33333333333
71
1
72
1
1
12.6
7
standard
210
0
220
0
230
1
50
0
73
2
44
1
0
MTEXT
5
FB
100
AcDbEntity
8
Text
6
ByLayer
62
256
370
-1
100
AcDbMText
10
-260
20
-90
30
0
40
3
41
6.33333333333
71
1
72
1
1
10.2
7
standard
210
0
220
0
230
1
50
0
73
2
44
1
0
MTEXT
5
FC
100
AcDbEntity
8
Text
6
ByLayer
62
256
370
-1
100
AcDbMText
10
-286
20
-40
30
0
40
3
41
6
71
1
72
1
1
280
7
standard
210
0
220
0
230
1
50
0
73
2
44
1
0
MTEXT
5
FD
100
AcDbEntity
8
Text
6
ByLayer
62
256
370
-1
100
AcDbMText
10
-281
20
-50
30
0
40
3
41
1.33333333333
71
1
72
1
1
0
7
standard
210
0
220
0
230
1
50
0
73
2
44
1
0
MTEXT
5
FE
100
AcDbEntity
8
Text
6
ByLayer
62
256
370
-1
100
AcDbMText
10
-283
20
-60
30
0
40
3
41
3
71
1
72
1
1
10
7
standard
210
0
220
0
230
1
50
0
73
2
44
1
0
MTEXT
5
FF
100
AcDbEntity
8
Text
6
ByLayer
62
256
370
-1
100
AcDbMText
10
-274
20
-70
30
0
40
3
41
11
71
1
72
1
1
13.500
7
standard
210
0
220
0
230
1
50
0
73
2
44
1
0
MTEXT
5
100
100
AcDbEntity
8
Text
6
ByLayer
62
256
370
-1
100
AcDbMText
10
-274
20
-90
30
0
40
3
41
5.33333333333
71
1
72
1
1
<10
7
standard
210
0
220
0
230
1
50
0
73
2
44
1
0
MTEXT
5
101
100
AcDbEntity
8
Text
6
ByLayer
62
256
370
-1
100
AcDbMText
10
-286
20
-90
30
0
40
3
41
5.33333333333
71
1
72
1
1
<10
7
standard
210
0
220
0
230
1
50
0
73
2
44
1
0
MTEXT
5
102
100
AcDbEntity
8
Text
6
ByLayer
62
256
370
-1
100
AcDbMText
10
10
20
30
30
0
40
5
41
84.305555
71
1
72
1
1
Arm (top, width tapered)
7
standard
210
0
220
0
230
1
50
0
73
2
44
1
0
MTEXT
5
103
100
AcDbEntity
8
Text
6
ByLayer
62
256
370
-1
100
AcDbMText
10
10
20
-10
30
0
40
5
41
100.416673825
71
1
72
1
1
Arm (side, thickness tapered)
7
standard
210
0
220
0
230
1
50
0
73
2
44
1
0
MTEXT
5
104
100
AcDbEntity
8
Text
6
ByLayer
62
256
370
-1
100
AcDbMText
10
10
20
70
30
0
40
5
41
104.166673825
71
1
72
1
1
Arm (side, no thickness taper)
7
standard
210
0
220
0
230
1
50
0
73
2
44
1
0
MTEXT
5
105
100
AcDbEntity
8
Text
6
ByLayer
62
256
370
-1
100
AcDbMText
10
-40
20
-70
30
0
40
3
41
8.66666666667
71
1
72
1
1
1.083
7
standard
210
0
220
0
230
1
50
0
73
2
44
1
0
MTEXT
5
106
100
AcDbEntity
8
Text
6
ByLayer
62
256
370
-1
100
AcDbMText
10
0
20
-70
30
0
40
3
41
8.66666666667
71
1
72
1
1
1.000
7
standard
210
0
220
0
230
1
50
0
73
2
44
1
0
MTEXT
5
107
100
AcDbEntity
8
Text
6
ByLayer
62
256
370
-1
100
AcDbMText
10
-40
20
-80
30
0
40
3
41
9.66666666667
71
1
72
1
1
0.974
7
standard
210
0
220
0
230
1
50
0
73
2
44
1
0
MTEXT
5
108
100
AcDbEntity
8
Text
6
ByLayer
62
256
370
-1
100
AcDbMText
10
0
20
-80
30
0
40
3
41
8.66666666667
71
1
72
1
1
1.000
7
standard
210
0
220
0
230
1
50
0
73
2
44
1
0
MTEXT
5
109
100
AcDbEntity
8
Text
6
ByLayer
62
256
370
-1
100
AcDbMText
10
20
20
-80
30
0
40
3
41
60.4166709619
71
1
72
1
1
Optimal thickness (times max)
7
standard
210
0
220
0
230
1
50
0
73
2
44
1
0
MTEXT
5
10A
100
AcDbEntity
8
Text
6
ByLayer
62
256
370
-1
100
AcDbMText
10
20
20
-70
30
0
40
3
41
42.5000012095
71
1
72
1
1
Width (times optimal)
7
standard
210
0
220
0
230
1
50
0
73
2
44
1
0
MTEXT
5
10B
100
AcDbEntity
8
Text
6
ByLayer
62
256
370
-1
100
AcDbMText
10
20
20
-90
30
0
40
3
41
45.8333360857
71
1
72
1
1
Optimal thickness (mm)
7
standard
210
0
220
0
230
1
50
0
73
2
44
1
0
LINE
5
10C
100
AcDbEntity
8
Visualization
6
ByLayer
62
256
370
-1
100
AcDbLine
10
-80
20
-36
11
-80
21
-24
0
LINE
5
10D
100
AcDbEntity
8
Visualization
6
ByLayer
62
256
370
-1
100
AcDbLine
10
-120
20
-36
11
-120
21
-24
0
LINE
5
10E
100
AcDbEntity
8
Visualization
6
ByLayer
62
256
370
-1
100
AcDbLine
10
-140
20
-36
11
-140
21
-24
0
LINE
5
10F
100
AcDbEntity
8
Visualization
6
ByLayer
62
256
370
-1
100
AcDbLine
10
-160
20
-36
11
-160
21
-24
0
LINE
5
110
100
AcDbEntity
8
Visualization
6
ByLayer
62
256
370
-1
100
AcDbLine
10
-180
20
-36
11
-180
21
-24
0
LINE
5
111
100
AcDbEntity
8
Visualization
6
ByLayer
62
256
370
-1
100
AcDbLine
10
-200
20
-36
11
-200
21
-24
0
LINE
5
112
100
AcDbEntity
8
Visualization
6
ByLayer
62
256
370
-1
100
AcDbLine
10
-220
20
-36
11
-220
21
-24
0
LINE
5
113
100
AcDbEntity
8
Visualization
6
ByLayer
62
256
370
-1
100
AcDbLine
10
-240
20
-36
11
-240
21
-24
0
LINE
5
114
100
AcDbEntity
8
Visualization
6
ByLayer
62
256
370
-1
100
AcDbLine
10
-260
20
-36
11
-260
21
-24
0
LINE
5
115
100
AcDbEntity
8
Visualization
6
ByLayer
62
256
370
-1
100
AcDbLine
10
-270
20
-36
11
-270
21
-24
0
LINE
5
116
100
AcDbEntity
8
Visualization
6
ByLayer
62
256
370
-1
100
AcDbLine
10
-280
20
-36
11
-280
21
-24
0
LINE
5
117
100
AcDbEntity
8
Visualization
6
ByLayer
62
256
370
-1
100
AcDbLine
10
-40
20
-36
11
-40
21
-24
0
LINE
5
118
100
AcDbEntity
8
Visualization
6
ByLayer
62
256
370
-1
100
AcDbLine
10
-3.67394039744e-16
20
-36
11
3.67394039744e-16
21
-24
0
LINE
5
119
100
AcDbEntity
8
Hoop
6
ByLayer
62
256
370
-1
100
AcDbLine
10
-44
20
17
11
-48
21
17
0
LINE
5
11A
100
AcDbEntity
8
Hoop
6
ByLayer
62
256
370
-1
100
AcDbLine
10
-48
20
17
11
-48
21
43
0
LINE
5
11B
100
AcDbEntity
8
Hoop
6
ByLayer
62
256
370
-1
100
AcDbLine
10
-48
20
43
11
-44
21
43
0
LINE
5
11C
100
AcDbEntity
8
Hoop
6
ByLayer
62
256
370
-1
100
AcDbLine
10
-44
20
43
11
-44
21
17
0
LINE
5
11D
100
AcDbEntity
8
Helpers
6
ByLayer
62
256
370
-1
100
AcDbLine
10
-40
20
27
11
-40
21
33
0
LINE
5
11E
100
AcDbEntity
8
Bar
6
ByLayer
62
256
370
-1
100
AcDbLine
10
-40
20
28.25
11
-280
21
28.25
0
LINE
5
11F
100
AcDbEntity
8
Bar
6
ByLayer
62
256
370
-1
100
AcDbLine
10
-40
20
31.75
11
-280
21
31.75
0
LINE
5
120
100
AcDbEntity
8
Bar
6
ByLayer
62
256
370
-1
100
AcDbLine
10
-40
20
31.75
11
-40
21
28.25
0
LINE
5
121
100
AcDbEntity
8
Visualization
6
ByLayer
62
256
370
-1
100
AcDbLine
10
-260
20
41
11
-260
21
36
0
LINE
5
122
100
AcDbEntity
8
Visualization
6
ByLayer
62
256
370
-1
100
AcDbLine
10
-140
20
41
11
-140
21
38
0
LINE
5
123
100
AcDbEntity
8
Helpers
6
ByLayer
62
256
370
-1
100
AcDbLine
10
-296
20
0
11
-296
21
100
0
LINE
5
124
100
AcDbEntity
8
Helpers
6
ByLayer
62
256
370
-1
100
AcDbLine
10
-288.937904197
20
-12.1115124126
11
-288.937904197
21
87.8884875874
0
LINE
5
125
100
AcDbEntity
8
Helpers
6
ByLayer
62
256
370
-1
100
AcDbLine
10
-283.5
20
1
11
-283.5
21
101
0
LINE
5
126
100
AcDbEntity
8
Bar
6
ByLayer
62
256
370
-1
100
AcDbLine
10
-280
20
31.75
11
-296
21
31.75
0
LINE
5
127
100
AcDbEntity
8
Bar
6
ByLayer
62
256
370
-1
100
AcDbLine
10
-280
20
28.25
11
-296
21
28.25
0
LINE
5
128
100
AcDbEntity
8
Bar
6
ByLayer
62
256
370
-1
100
AcDbLine
10
-296
20
31.75
11
-296
21
28.25
0
LINE
5
129
100
AcDbEntity
8
Bar
6
ByLayer
62
256
370
-1
100
AcDbLine
10
-288.937904197
20
31.75
11
-288.937904197
21
28.25
0
LINE
5
12A
100
AcDbEntity
8
Bar
6
ByLayer
62
256
370
-1
100
AcDbLine
10
-288.937904197
20
28.25
11
-280
21
28.25
0
LINE
5
12B
100
AcDbEntity
8
Bar
6
ByLayer
62
256
370
-1
100
AcDbLine
10
-280
20
28.25
11
-280
21
31.75
0
CIRCLE
5
12C
100
AcDbEntity
8
Spring bundle
6
ByLayer
62
256
370
-1
100
AcDbCircle
10
-8.58312020056
20
2.1
40
2
0
CIRCLE
5
12D
100
AcDbEntity
8
Spring bundle
6
ByLayer
62
256
370
-1
100
AcDbCircle
10
-6.58312020056
20
5.5
40
2
0
CIRCLE
5
12E
100
AcDbEntity
8
Spring bundle
6
ByLayer
62
256
370
-1
100
AcDbCircle
10
-10.5831202006
20
5.5
40
2
0
CIRCLE
5
12F
100
AcDbEntity
8
Spring bundle
6
ByLayer
62
256
370
-1
100
AcDbCircle
10
-12.5831202006
20
2.1
40
2
0
CIRCLE
5
130
100
AcDbEntity
8
Spring bundle
6
ByLayer
62
256
370
-1
100
AcDbCircle
10
-16.5831202006
20
2.1
40
2
0
CIRCLE
5
131
100
AcDbEntity
8
Spring bundle
6
ByLayer
62
256
370
-1
100
AcDbCircle
10
-14.5831202006
20
5.5
40
2
0
CIRCLE
5
132
100
AcDbEntity
8
Spring bundle
6
ByLayer
62
256
370
-1
100
AcDbCircle
10
-8.58312020056
20
9
40
2
0
CIRCLE
5
133
100
AcDbEntity
8
Spring bundle
6
ByLayer
62
256
370
-1
100
AcDbCircle
10
-12.6831202006
20
9
40
2
0
CIRCLE
5
134
100
AcDbEntity
8
Spring bundle
6
ByLayer
62
256
370
-1
100
AcDbCircle
10
-20.5831202006
20
2.2
40
2
0
CIRCLE
5
135
100
AcDbEntity
8
Spring bundle
6
ByLayer
62
256
370
-1
100
AcDbCircle
10
-18.5831202006
20
5.7
40
2
0
CIRCLE
5
136
100
AcDbEntity
8
Spring bundle
6
ByLayer
62
256
370
-1
100
AcDbCircle
10
-16.6831202006
20
9.2
40
2
0
CIRCLE
5
137
100
AcDbEntity
8
Spring bundle
6
ByLayer
62
256
370
-1
100
AcDbCircle
10
-4.58312020056
20
2
40
2
0
LINE
5
138
100
AcDbEntity
8
Visualization
6
ByLayer
62
256
370
-1
100
AcDbLine
10
-44
20
-24
11
-44
21
-36
0
LINE
5
139
100
AcDbEntity
8
Visualization
6
ByLayer
62
256
370
-1
100
AcDbLine
10
-44
20
-36
11
-47
21
-36
0
MTEXT
5
13A
100
AcDbEntity
8
Text
6
ByLayer
62
256
370
-1
100
AcDbMText
10
-53
20
-35
30
0
40
3
41
4.33333333333
71
1
72
1
1
44
7
standard
210
0
220
0
230
1
50
0
73
2
44
1
0
ARC
5
13B
100
AcDbEntity
8
Cone
6
ByLayer
62
256
370
-1
100
AcDbCircle
10
-5.11
20
4.075
40
4.25084991502
100
AcDbArc
50
286.537866282
51
330.781750226
0
ARC
5
13C
100
AcDbEntity
8
Cone
6
ByLayer
62
256
370
-1
100
AcDbCircle
10
-2.04375
20
0.059375
40
2.04461229898
100
AcDbArc
50
358.335911783
51
71.6481286145
0
CIRCLE
5
13D
100
AcDbEntity
8
Hoop
6
ByLayer
62
256
370
-1
100
AcDbCircle
10
-10
20
110
40
13.5
0
ARC
5
13E
100
AcDbEntity
8
Cone
6
ByLayer
62
256
370
-1
100
AcDbCircle
10
-10
20
110
40
10
100
AcDbArc
50
100.368995732
51
79.5880654126
0
CIRCLE
5
13F
100
AcDbEntity
8
Helpers
6
ByLayer
62
256
370
-1
100
AcDbCircle
10
-10
20
110
40
10
0
CIRCLE
5
140
100
AcDbEntity
8
Hoop
6
ByLayer
62
256
370
-1
100
AcDbCircle
10
-10
20
110
40
9.8
0
MTEXT
5
141
100
AcDbEntity
8
Text
6
ByLayer
62
256
370
-1
100
AcDbMText
10
-50
20
3
30
0
40
2
41
1.11111111111
71
1
72
1
1
4
7
standard
210
0
220
0
230
1
50
0
73
2
44
1
0
MTEXT
5
142
100
AcDbEntity
8
Text
6
ByLayer
62
256
370
-1
100
AcDbMText
10
-47
20
7
30
0
40
2
41
1.11111111111
71
1
72
1
1
4
7
standard
210
0
220
0
230
1
50
0
73
2
44
1
0
MTEXT
5
143
100
AcDbEntity
8
Text
6
ByLayer
62
256
370
-1
100
AcDbMText
10
-43
20
7
30
0
40
2
41
3.11111111111
71
1
72
1
1
3.5
7
standard
210
0
220
0
230
1
50
0
73
2
44
1
0
MTEXT
5
144
100
AcDbEntity
8
Text
6
ByLayer
62
256
370
-1
100
AcDbMText
10
-300
20
31
30
0
40
2
41
3.11111111111
71
1
72
1
1
3.5
7
standard
210
0
220
0
230
1
50
0
73
2
44
1
0
MTEXT
5
145
100
AcDbEntity
8
Text
6
ByLayer
62
256
370
-1
100
AcDbMText
10
-8
20
118.5
30
0
40
2
41
3.11111111111
71
1
72
1
1
3.6
7
standard
210
0
220
0
230
1
50
0
73
2
44
1
0
MTEXT
5
146
100
AcDbEntity
8
Text
6
ByLayer
62
256
370
-1
100
AcDbMText
10
-11.5
20
116
30
0
40
2
41
3.11111111111
71
1
72
1
1
3.6
7
standard
210
0
220
0
230
1
50
0
73
2
44
1
0
LINE
5
147
100
AcDbEntity
8
Visualization
6
ByLayer
62
256
370
-1
100
AcDbLine
10
-10
20
120
11
-10
21
123
0
MTEXT
5
148
100
AcDbEntity
8
Text
6
ByLayer
62
256
370
-1
100
AcDbMText
10
-11.4
20
122.5
30
0
40
2
41
1.11111111111
71
1
72
1
1
4
7
standard
210
0
220
0
230
1
50
0
73
2
44
1
0
LINE
5
149
100
AcDbEntity
8
Visualization
6
ByLayer
62
256
370
-1
100
AcDbLine
10
0.1
20
110
11
3.3
21
110
0
MTEXT
5
14A
100
AcDbEntity
8
Text
6
ByLayer
62
256
370
-1
100
AcDbMText
10
1.1
20
112.2
30
0
40
2
41
1.11111111111
71
1
72
1
1
4
7
standard
210
0
220
0
230
1
50
0
73
2
44
1
0
MTEXT
5
14B
100
AcDbEntity
8
Text
6
ByLayer
62
256
370
-1
100
AcDbMText
10
10
20
110
30
0
40
5
41
88.7500045873
71
1
72
1
1
Arm, round version (Base)
7
standard
210
0
220
0
230
1
50
0
73
2
44
1
0
ARC
5
14C
100
AcDbEntity
8
Cone
6
ByLayer
62
256
370
-1
100
AcDbCircle
10
-13
20
143
40
7
100
AcDbArc
50
90
51
180
0
ARC
5
14D
100
AcDbEntity
8
Cone
6
ByLayer
62
256
370
-1
100
AcDbCircle
10
-7
20
143
40
7
100
AcDbArc
50
0
51
90
0
LINE
5
14E
100
AcDbEntity
8
Cone
6
ByLayer
62
256
370
-1
100
AcDbLine
10
0
20
143
11
0
21
137
0
ARC
5
14F
100
AcDbEntity
8
Cone
6
ByLayer
62
256
370
-1
100
AcDbCircle
10
-7
20
137
40
7
100
AcDbArc
50
270
51
0
0
LINE
5
150
100
AcDbEntity
8
Cone
6
ByLayer
62
256
370
-1
100
AcDbLine
10
-20
20
137
11
-20
21
143
0
LINE
5
151
100
AcDbEntity
8
Cone
6
ByLayer
62
256
370
-1
100
AcDbLine
10
-7
20
130
11
-13
21
130
0
ARC
5
152
100
AcDbEntity
8
Cone
6
ByLayer
62
256
370
-1
100
AcDbCircle
10
-13
20
137
40
7
100
AcDbArc
50
180
51
270
0
LINE
5
153
100
AcDbEntity
8
Cone
6
ByLayer
62
256
370
-1
100
AcDbLine
10
-8.2
20
116.3
11
-11.8
21
116.3
0
LINE
5
154
100
AcDbEntity
8
Cone
6
ByLayer
62
256
370
-1
100
AcDbLine
10
-8.2
20
119.837505405
11
-8.2
21
116.3
0
LINE
5
155
100
AcDbEntity
8
Cone
6
ByLayer
62
256
370
-1
100
AcDbLine
10
-11.8
20
116.3
11
-11.8
21
119.836690075
0
LINE
5
156
100
AcDbEntity
8
Cone
6
ByLayer
62
256
370
-1
100
AcDbLine
10
-8.2
20
150
11
-8.2
21
146.4
0
LINE
5
157
100
AcDbEntity
8
Cone
6
ByLayer
62
256
370
-1
100
AcDbLine
10
-8.2
20
146.4
11
-11.8
21
146.4
0
LINE
5
158
100
AcDbEntity
8
Cone
6
ByLayer
62
256
370
-1
100
AcDbLine
10
-11.8
20
146.4
11
-11.8
21
150
0
LINE
5
159
100
AcDbEntity
8
Cone
6
ByLayer
62
256
370
-1
100
AcDbLine
10
-13
20
150
11
-11.8
21
150
0
LINE
5
15A
100
AcDbEntity
8
Cone
6
ByLayer
62
256
370
-1
100
AcDbLine
10
-8.2
20
150
11
-7
21
150
0
MTEXT
5
15B
100
AcDbEntity
8
Text
6
ByLayer
62
256
370
-1
100
AcDbMText
10
10
20
140
30
0
40
5
41
107.083340492
71
1
72
1
1
Arm, semi-round version (Base)
7
standard
210
0
220
0
230
1
50
0
73
2
44
1
0
ENDSEC
0
SECTION
2
OBJECTS
0
DICTIONARY
5
C
330
0
100
AcDbDictionary
281
1
3
ACAD_GROUP
350
D
0
DICTIONARY
5
D
330
C
100
AcDbDictionary
281
1
0
ENDSEC
0
EOF
