999
dxflib 2.2.0.0
  0
SECTION
  2
HEADER
  9
$ACADVER
  1
AC1015
  9
$HANDSEED
  5
FFFF
  9
$SPLINESEGS
 70
8
  9
$DIMEXE
 40
1.25
  9
$DIMLUNIT
 70
2
  9
$GRIDMODE
 70
1
  9
$INSUNITS
 70
4
  9
$DIMADEC
 70
2
  9
$DIMASZ
 40
2.5
  9
$DIMGAP
 40
0.625
  9
$DIMTXT
 40
2.5
  9
$GRIDUNIT
 10
0.0
 20
0.0
  9
$DIMEXO
 40
0.625
  9
$LUPREC
 70
4
  9
$DIMAUNIT
 70
0
  9
$AUPREC
 70
2
  9
$PLIMMIN
 10
0.0
 20
0.0
  9
$LUNITS
 70
2
  9
$PLIMMAX
 10
210.0
 20
297.0
  9
$DIMSTYLE
  2
Standard
  9
$AUNITS
 70
0
  0
ENDSEC
  0
SECTION
  2
TABLES
  0
TABLE
  2
VPORT
  5
8
100
AcDbSymbolTable
 70
1
  0
VPORT
  5
30
100
AcDbSymbolTableRecord
100
AcDbViewportTableRecord
  2
*Active
 70
0
 10
0.0
 20
0.0
 11
1.0
 21
1.0
 12
286.3055555555554861
 22
148.5
 13
0.0
 23
0.0
 14
10.0
 24
10.0
 15
10.0
 25
10.0
 16
0.0
 26
0.0
 36
1.0
 17
0.0
 27
0.0
 37
0.0
 40
297.0
 41
1.92798353909465
 42
50.0
 43
0.0
 44
0.0
 50
0.0
 51
0.0
 71
0
 72
100
 73
1
 74
3
 75
1
 76
1
 77
0
 78
0
281
0
 65
1
110
0.0
120
0.0
130
0.0
111
1.0
121
0.0
131
0.0
112
0.0
122
1.0
132
0.0
 79
0
146
0.0
  0
ENDTAB
  0
TABLE
  2
LTYPE
  5
5
100
AcDbSymbolTable
 70
21
  0
LTYPE
  5
14
100
AcDbSymbolTableRecord
100
AcDbLinetypeTableRecord
  2
ByBlock
 70
0
  3

 72
65
 73
0
 40
0.0
  0
LTYPE
  5
15
100
AcDbSymbolTableRecord
100
AcDbLinetypeTableRecord
  2
ByLayer
 70
0
  3

 72
65
 73
0
 40
0.0
  0
LTYPE
  5
16
100
AcDbSymbolTableRecord
100
AcDbLinetypeTableRecord
  2
CONTINUOUS
 70
0
  3
Solid line
 72
65
 73
0
 40
0.0
  0
LTYPE
  5
31
100
AcDbSymbolTableRecord
100
AcDbLinetypeTableRecord
  2
DOT
 70
0
  3
Dot . . . . . . . . . . . . . . . . . . . . . .
 72
65
 73
2
 40
6.3499999999999996
 49
0.0
 74
0
 49
-6.3499999999999996
 74
0
  0
LTYPE
  5
32
100
AcDbSymbolTableRecord
100
AcDbLinetypeTableRecord
  2
DOT2
 70
0
  3
Dot (.5x) .....................................
 72
65
 73
2
 40
3.1749999999999998
 49
0.0
 74
0
 49
-3.1749999999999998
 74
0
  0
LTYPE
  5
33
100
AcDbSymbolTableRecord
100
AcDbLinetypeTableRecord
  2
DOTX2
 70
0
  3
Dot (2x) .  .  .  .  .  .  .  .  .  .  .  .  .
 72
65
 73
2
 40
12.6999999999999993
 49
0.0
 74
0
 49
-12.6999999999999993
 74
0
  0
LTYPE
  5
34
100
AcDbSymbolTableRecord
100
AcDbLinetypeTableRecord
  2
DASHED
 70
0
  3
Dashed __ __ __ __ __ __ __ __ __ __ __ __ __ _
 72
65
 73
2
 40
19.0500000000000007
 49
12.6999999999999993
 74
0
 49
-6.3499999999999996
 74
0
  0
LTYPE
  5
35
100
AcDbSymbolTableRecord
100
AcDbLinetypeTableRecord
  2
DASHED2
 70
0
  3
Dashed (.5x) _ _ _ _ _ _ _ _ _ _ _ _ _ _ _ _ _
 72
65
 73
2
 40
9.5250000000000004
 49
6.3499999999999996
 74
0
 49
-3.1749999999999998
 74
0
  0
LTYPE
  5
36
100
AcDbSymbolTableRecord
100
AcDbLinetypeTableRecord
  2
DASHEDX2
 70
0
  3
Dashed (2x) ____  ____  ____  ____  ____  ___
 72
65
 73
2
 40
38.1000000000000014
 49
25.3999999999999986
 74
0
 49
-12.6999999999999993
 74
0
  0
LTYPE
  5
37
100
AcDbSymbolTableRecord
100
AcDbLinetypeTableRecord
  2
DASHDOT
 70
0
  3
Dash dot __ . __ . __ . __ . __ . __ . __ . __
 72
65
 73
4
 40
25.3999999999999986
 49
12.6999999999999993
 74
0
 49
-6.3499999999999996
 74
0
 49
0.0
 74
0
 49
-6.3499999999999996
 74
0
  0
LTYPE
  5
38
100
AcDbSymbolTableRecord
100
AcDbLinetypeTableRecord
  2
DASHDOT2
 70
0
  3
Dash dot (.5x) _._._._._._._._._._._._._._._.
 72
65
 73
4
 40
12.6999999999999993
 49
6.3499999999999996
 74
0
 49
-3.1749999999999998
 74
0
 49
0.0
 74
0
 49
-3.1749999999999998
 74
0
  0
LTYPE
  5
39
100
AcDbSymbolTableRecord
100
AcDbLinetypeTableRecord
  2
DASHDOTX2
 70
0
  3
Dash dot (2x) ____  .  ____  .  ____  .  ___
 72
65
 73
4
 40
50.7999999999999972
 49
25.3999999999999986
 74
0
 49
-12.6999999999999993
 74
0
 49
0.0
 74
0
 49
-12.6999999999999993
 74
0
  0
LTYPE
  5
3A
100
AcDbSymbolTableRecord
100
AcDbLinetypeTableRecord
  2
DIVIDE
 70
0
  3
Divide ____ . . ____ . . ____ . . ____ . . ____
 72
65
 73
6
 40
31.75
 49
12.6999999999999993
 74
0
 49
-6.3499999999999996
 74
0
 49
0.0
 74
0
 49
-6.3499999999999996
 74
0
 49
0.0
 74
0
 49
-6.3499999999999996
 74
0
  0
LTYPE
  5
3B
100
AcDbSymbolTableRecord
100
AcDbLinetypeTableRecord
  2
DIVIDE2
 70
0
  3
Divide (.5x) __..__..__..__..__..__..__..__.._
 72
65
 73
6
 40
15.875
 49
6.3499999999999996
 74
0
 49
-3.1749999999999998
 74
0
 49
0.0
 74
0
 49
-3.1749999999999998
 74
0
 49
0.0
 74
0
 49
-3.1749999999999998
 74
0
  0
LTYPE
  5
3C
100
AcDbSymbolTableRecord
100
AcDbLinetypeTableRecord
  2
DIVIDEX2
 70
0
  3
Divide (2x) ________  .  .  ________  .  .  _
 72
65
 73
6
 40
63.5
 49
25.3999999999999986
 74
0
 49
-12.6999999999999993
 74
0
 49
0.0
 74
0
 49
-12.6999999999999993
 74
0
 49
0.0
 74
0
 49
-12.6999999999999993
 74
0
  0
LTYPE
  5
3D
100
AcDbSymbolTableRecord
100
AcDbLinetypeTableRecord
  2
CENTER
 70
0
  3
Center ____ _ ____ _ ____ _ ____ _ ____ _ ____
 72
65
 73
4
 40
50.7999999999999972
 49
31.75
 74
0
 49
-6.3499999999999996
 74
0
 49
6.3499999999999996
 74
0
 49
-6.3499999999999996
 74
0
  0
LTYPE
  5
3E
100
AcDbSymbolTableRecord
100
AcDbLinetypeTableRecord
  2
CENTER2
 70
0
  3
Center (.5x) ___ _ ___ _ ___ _ ___ _ ___ _ ___
 72
65
 73
4
 40
28.5749999999999993
 49
19.0500000000000007
 74
0
 49
-3.1749999999999998
 74
0
 49
3.1749999999999998
 74
0
 49
-3.1749999999999998
 74
0
  0
LTYPE
  5
3F
100
AcDbSymbolTableRecord
100
AcDbLinetypeTableRecord
  2
CENTERX2
 70
0
  3
Center (2x) ________  __  ________  __  _____
 72
65
 73
4
 40
101.5999999999999943
 49
63.5
 74
0
 49
-12.6999999999999993
 74
0
 49
12.6999999999999993
 74
0
 49
-12.6999999999999993
 74
0
  0
LTYPE
  5
40
100
AcDbSymbolTableRecord
100
AcDbLinetypeTableRecord
  2
BORDER
 70
0
  3
Border __ __ . __ __ . __ __ . __ __ . __ __ .
 72
65
 73
6
 40
44.4500000000000028
 49
12.6999999999999993
 74
0
 49
-6.3499999999999996
 74
0
 49
12.6999999999999993
 74
0
 49
-6.3499999999999996
 74
0
 49
0.0
 74
0
 49
-6.3499999999999996
 74
0
  0
LTYPE
  5
41
100
AcDbSymbolTableRecord
100
AcDbLinetypeTableRecord
  2
BORDER2
 70
0
  3
Border (.5x) __.__.__.__.__.__.__.__.__.__.__.
 72
65
 73
6
 40
22.2250000000000014
 49
6.3499999999999996
 74
0
 49
-3.1749999999999998
 74
0
 49
6.3499999999999996
 74
0
 49
-3.1749999999999998
 74
0
 49
0.0
 74
0
 49
-3.1749999999999998
 74
0
  0
LTYPE
  5
42
100
AcDbSymbolTableRecord
100
AcDbLinetypeTableRecord
  2
BORDERX2
 70
0
  3
Border (2x) ____  ____  .  ____  ____  .  ___
 72
65
 73
6
 40
88.9000000000000057
 49
25.3999999999999986
 74
0
 49
-12.6999999999999993
 74
0
 49
25.3999999999999986
 74
0
 49
-12.6999999999999993
 74
0
 49
0.0
 74
0
 49
-12.6999999999999993
 74
0
  0
ENDTAB
  0
TABLE
  2
LAYER
  5
2
100
AcDbSymbolTable
 70
8
  0
LAYER
  5
10
100
AcDbSymbolTableRecord
100
AcDbLayerTableRecord
  2
0
 70
0
 62
7
  6
CONTINUOUS
290
1
370
0
390
F
  0
LAYER
  5
43
100
AcDbSymbolTableRecord
100
AcDbLayerTableRecord
  2
Sides
 70
0
 62
7
  6
CONTINUOUS
290
1
370
0
390
F
  0
LAYER
  5
44
100
AcDbSymbolTableRecord
100
AcDbLayerTableRecord
  2
Helpers
 70
1
 62
3
  6
CONTINUOUS
290
1
370
0
390
F
  0
LAYER
  5
45
100
AcDbSymbolTableRecord
100
AcDbLayerTableRecord
  2
Measurements
 70
0
 62
7
  6
CONTINUOUS
290
1
370
0
390
F
  0
LAYER
  5
46
100
AcDbSymbolTableRecord
100
AcDbLayerTableRecord
  2
Spacers
 70
0
 62
7
  6
CONTINUOUS
290
1
370
0
390
F
  0
LAYER
  5
47
100
AcDbSymbolTableRecord
100
AcDbLayerTableRecord
  2
Crossbeams
 70
0
 62
7
  6
CONTINUOUS
290
1
370
0
390
F
  0
LAYER
  5
48
100
AcDbSymbolTableRecord
100
AcDbLayerTableRecord
  2
Winch axle
 70
0
 62
7
  6
CONTINUOUS
290
1
370
0
390
F
  0
LAYER
  5
49
100
AcDbSymbolTableRecord
100
AcDbLayerTableRecord
  2
Winch handle
 70
0
 62
7
  6
CONTINUOUS
290
1
370
0
390
F
  0
ENDTAB
  0
TABLE
  2
STYLE
  5
3
100
AcDbSymbolTable
 70
1
  0
STYLE
  5
11
100
AcDbSymbolTableRecord
100
AcDbTextStyleTableRecord
  2
Standard
 70
0
 40
0.0
 41
0.75
 50
0.0
 71
0
 42
2.5
  3
txt
  4

  0
ENDTAB
  0
TABLE
  2
VIEW
  5
6
100
AcDbSymbolTable
 70
0
  0
ENDTAB
  0
TABLE
  2
UCS
  5
7
100
AcDbSymbolTable
 70
0
  0
ENDTAB
  0
TABLE
  2
APPID
  5
9
100
AcDbSymbolTable
 70
1
  0
APPID
  5
12
100
AcDbSymbolTableRecord
100
AcDbRegAppTableRecord
  2
ACAD
 70
0
  0
ENDTAB
  0
TABLE
  2
DIMSTYLE
  5
A
100
AcDbSymbolTable
 70
1
100
AcDbDimStyleTable
 71
0
  0
DIMSTYLE
105
27
100
AcDbSymbolTableRecord
100
AcDbDimStyleTableRecord
  2
Standard
 41
2.5
 42
0.625
 43
3.75
 44
1.25
 70
0
 73
0
 74
0
 77
1
 78
8
140
2.5
141
2.5
143
0.03937007874016
147
0.625
171
3
172
1
271
2
272
2
274
3
278
44
283
0
284
8
340
11
  0
ENDTAB
  0
TABLE
  2
BLOCK_RECORD
  5
1
100
AcDbSymbolTable
 70
1
  0
BLOCK_RECORD
  5
1F
100
AcDbSymbolTableRecord
100
AcDbBlockTableRecord
  2
*Model_Space
340
22
  0
BLOCK_RECORD
  5
1B
100
AcDbSymbolTableRecord
100
AcDbBlockTableRecord
  2
*Paper_Space
340
1E
  0
BLOCK_RECORD
  5
23
100
AcDbSymbolTableRecord
100
AcDbBlockTableRecord
  2
*Paper_Space0
340
26
  0
ENDTAB
  0
ENDSEC
  0
SECTION
  2
BLOCKS
  0
BLOCK
  5
20
100
AcDbEntity
  8
0
100
AcDbBlockBegin
  2
*Model_Space
 70
0
 10
0.0
 20
0.0
 30
0.0
  3
*Model_Space
  1

  0
ENDBLK
  5
21
100
AcDbEntity
  8
0
100
AcDbBlockEnd
  0
BLOCK
  5
1C
100
AcDbEntity
 67
1
  8
0
100
AcDbBlockBegin
  2
*Paper_Space
 70
0
 10
0.0
 20
0.0
 30
0.0
  3
*Paper_Space
  1

  0
ENDBLK
  5
1D
100
AcDbEntity
 67
1
  8
0
100
AcDbBlockEnd
  0
BLOCK
  5
24
100
AcDbEntity
  8
0
100
AcDbBlockBegin
  2
*Paper_Space0
 70
0
 10
0.0
 20
0.0
 30
0.0
  3
*Paper_Space0
  1

  0
ENDBLK
  5
25
100
AcDbEntity
  8
0
100
AcDbBlockEnd
  0
ENDSEC
  0
SECTION
  2
ENTITIES
  0
LINE
  5
4A
100
AcDbEntity
100
AcDbLine
  8
Sides
 62
256
370
-1
  6
ByLayer
 10
0.0
 20
0.0
 30
0.0
 11
0.0000000000000317
 21
517.0
 31
0.0
  0
LINE
  5
4B
100
AcDbEntity
100
AcDbLine
  8
Sides
 62
256
370
-1
  6
ByLayer
 10
0.0
 20
0.0
 30
0.0
 11
-137.0
 21
0.0
 31
0.0
  0
LINE
  5
4C
100
AcDbEntity
100
AcDbLine
  8
Sides
 62
256
370
-1
  6
ByLayer
 10
-137.0
 20
0.0
 30
0.0
 11
-136.9999999999999716
 21
517.0
 31
0.0
  0
LINE
  5
4D
100
AcDbEntity
100
AcDbLine
  8
Helpers
 62
256
370
-1
  6
ByLayer
 10
-137.0
 20
0.0
 30
0.0
 11
-137.0
 21
25.0
 31
0.0
  0
LINE
  5
4E
100
AcDbEntity
100
AcDbLine
  8
Helpers
 62
256
370
-1
  6
ByLayer
 10
0.0
 20
0.0
 30
0.0
 11
0.0000000000000015
 21
25.0
 31
0.0
  0
LINE
  5
4F
100
AcDbEntity
100
AcDbLine
  8
Helpers
 62
256
370
-1
  6
ByLayer
 10
-137.0
 20
25.0
 30
0.0
 11
-112.0
 21
25.0
 31
0.0
  0
LINE
  5
50
100
AcDbEntity
100
AcDbLine
  8
Helpers
 62
256
370
-1
  6
ByLayer
 10
0.0000000000000015
 20
25.0
 30
0.0
 11
-25.0
 21
25.0
 31
0.0
  0
CIRCLE
  5
51
100
AcDbEntity
100
AcDbCircle
  8
Sides
 62
256
370
-1
  6
ByLayer
 10
-25.0
 20
25.0
 30
0.0
 40
6.0
  0
CIRCLE
  5
52
100
AcDbEntity
100
AcDbCircle
  8
Sides
 62
256
370
-1
  6
ByLayer
 10
-112.0
 20
25.0
 30
0.0
 40
6.0
  0
LINE
  5
53
100
AcDbEntity
100
AcDbLine
  8
Helpers
 62
256
370
-1
  6
ByLayer
 10
-68.5
 20
0.0
 30
0.0
 11
-68.5
 21
50.0
 31
0.0
  0
CIRCLE
  5
54
100
AcDbEntity
100
AcDbCircle
  8
Sides
 62
256
370
-1
  6
ByLayer
 10
-68.5
 20
50.0
 30
0.0
 40
13.0
  0
CIRCLE
  5
55
100
AcDbEntity
100
AcDbCircle
  8
Helpers
 62
256
370
-1
  6
ByLayer
 10
-68.5
 20
50.0
 30
0.0
 40
40.0
  0
CIRCLE
  5
56
100
AcDbEntity
100
AcDbCircle
  8
Helpers
 62
256
370
-1
  6
ByLayer
 10
-68.5
 20
50.0
 30
0.0
 40
55.0
  0
LINE
  5
57
100
AcDbEntity
100
AcDbLine
  8
Helpers
 62
256
370
-1
  6
ByLayer
 10
-68.5
 20
50.0
 30
0.0
 11
-122.6644264156714428
 21
59.5506497716811651
 31
0.0
  0
LINE
  5
58
100
AcDbEntity
100
AcDbLine
  8
Helpers
 62
256
370
-1
  6
ByLayer
 10
-68.5
 20
50.0
 30
0.0
 11
-116.1313972081441364
 21
77.5
 31
0.0
  0
LINE
  5
59
100
AcDbEntity
100
AcDbLine
  8
Helpers
 62
256
370
-1
  6
ByLayer
 10
-68.5
 20
50.0
 30
0.0
 11
-103.8533185327596584
 21
92.1324443715437837
 31
0.0
  0
LINE
  5
5A
100
AcDbEntity
100
AcDbLine
  8
Helpers
 62
256
370
-1
  6
ByLayer
 10
-68.5
 20
50.0
 30
0.0
 11
-87.3111078829117844
 21
101.6830941432249631
 31
0.0
  0
LINE
  5
5B
100
AcDbEntity
100
AcDbLine
  8
Helpers
 62
256
370
-1
  6
ByLayer
 10
-68.5
 20
50.0
 30
0.0
 11
-68.5
 21
105.0
 31
0.0
  0
LINE
  5
5C
100
AcDbEntity
100
AcDbLine
  8
Helpers
 62
256
370
-1
  6
ByLayer
 10
-68.5
 20
50.0
 30
0.0
 11
-14.3355735843285572
 21
59.5506497716811793
 31
0.0
  0
LINE
  5
5D
100
AcDbEntity
100
AcDbLine
  8
Helpers
 62
256
370
-1
  6
ByLayer
 10
-68.5
 20
50.0
 30
0.0
 11
-20.8686027918558779
 21
77.5
 31
0.0
  0
LINE
  5
5E
100
AcDbEntity
100
AcDbLine
  8
Helpers
 62
256
370
-1
  6
ByLayer
 10
-68.5
 20
50.0
 30
0.0
 11
-33.1466814672403274
 21
92.1324443715437837
 31
0.0
  0
LINE
  5
5F
100
AcDbEntity
100
AcDbLine
  8
Helpers
 62
256
370
-1
  6
ByLayer
 10
-68.5
 20
50.0
 30
0.0
 11
-49.6888921170881872
 21
101.6830941432249489
 31
0.0
  0
LINE
  5
60
100
AcDbEntity
100
AcDbLine
  8
Helpers
 62
256
370
-1
  6
ByLayer
 10
-68.5
 20
50.0
 30
0.0
 11
-122.6644264156714428
 21
40.4493502283188349
 31
0.0
  0
LINE
  5
61
100
AcDbEntity
100
AcDbLine
  8
Helpers
 62
256
370
-1
  6
ByLayer
 10
-68.5
 20
50.0
 30
0.0
 11
-14.3355735843285572
 21
40.4493502283188135
 31
0.0
  0
CIRCLE
  5
62
100
AcDbEntity
100
AcDbCircle
  8
Sides
 62
256
370
-1
  6
ByLayer
 10
-122.6644264156714428
 20
40.4493502283188349
 30
0.0
 40
3.0
  0
CIRCLE
  5
63
100
AcDbEntity
100
AcDbCircle
  8
Sides
 62
256
370
-1
  6
ByLayer
 10
-122.6644264156714428
 20
59.5506497716811651
 30
0.0
 40
3.0
  0
CIRCLE
  5
64
100
AcDbEntity
100
AcDbCircle
  8
Sides
 62
256
370
-1
  6
ByLayer
 10
-116.1313972081441364
 20
77.5
 30
0.0
 40
3.0
  0
CIRCLE
  5
65
100
AcDbEntity
100
AcDbCircle
  8
Sides
 62
256
370
-1
  6
ByLayer
 10
-103.8533185327596584
 20
92.1324443715437837
 30
0.0
 40
3.0
  0
CIRCLE
  5
66
100
AcDbEntity
100
AcDbCircle
  8
Sides
 62
256
370
-1
  6
ByLayer
 10
-87.3111078829117844
 20
101.6830941432249631
 30
0.0
 40
3.0
  0
CIRCLE
  5
67
100
AcDbEntity
100
AcDbCircle
  8
Sides
 62
256
370
-1
  6
ByLayer
 10
-68.5
 20
105.0
 30
0.0
 40
3.0
  0
CIRCLE
  5
68
100
AcDbEntity
100
AcDbCircle
  8
Sides
 62
256
370
-1
  6
ByLayer
 10
-49.6888921170881872
 20
101.6830941432249489
 30
0.0
 40
3.0
  0
CIRCLE
  5
69
100
AcDbEntity
100
AcDbCircle
  8
Sides
 62
256
370
-1
  6
ByLayer
 10
-33.1466814672403274
 20
92.1324443715437837
 30
0.0
 40
3.0
  0
CIRCLE
  5
6A
100
AcDbEntity
100
AcDbCircle
  8
Sides
 62
256
370
-1
  6
ByLayer
 10
-20.8686027918558779
 20
77.5
 30
0.0
 40
3.0
  0
CIRCLE
  5
6B
100
AcDbEntity
100
AcDbCircle
  8
Sides
 62
256
370
-1
  6
ByLayer
 10
-14.3355735843285572
 20
59.5506497716811793
 30
0.0
 40
3.0
  0
CIRCLE
  5
6C
100
AcDbEntity
100
AcDbCircle
  8
Sides
 62
256
370
-1
  6
ByLayer
 10
-14.3355735843285572
 20
40.4493502283188135
 30
0.0
 40
3.0
  0
LINE
  5
6D
100
AcDbEntity
100
AcDbLine
  8
Helpers
 62
256
370
-1
  6
ByLayer
 10
-108.5
 20
50.0
 30
0.0
 11
-28.5
 21
50.0
 31
0.0
  0
LINE
  5
6E
100
AcDbEntity
100
AcDbLine
  8
Helpers
 62
256
370
-1
  6
ByLayer
 10
-68.5
 20
50.0
 30
0.0
 11
-30.9122951685636593
 21
63.6808057330267445
 31
0.0
  0
LINE
  5
6F
100
AcDbEntity
100
AcDbLine
  8
Helpers
 62
256
370
-1
  6
ByLayer
 10
-68.5
 20
50.0
 30
0.0
 11
-37.8582222752408768
 21
75.7115043874615736
 31
0.0
  0
LINE
  5
70
100
AcDbEntity
100
AcDbLine
  8
Helpers
 62
256
370
-1
  6
ByLayer
 10
-68.5
 20
50.0
 30
0.0
 11
-48.5
 21
84.6410161513775421
 31
0.0
  0
LINE
  5
71
100
AcDbEntity
100
AcDbLine
  8
Helpers
 62
256
370
-1
  6
ByLayer
 10
-68.5
 20
50.0
 30
0.0
 11
-61.5540728933227825
 21
89.3923101204883181
 31
0.0
  0
LINE
  5
72
100
AcDbEntity
100
AcDbLine
  8
Helpers
 62
256
370
-1
  6
ByLayer
 10
-68.5
 20
50.0
 30
0.0
 11
-75.4459271066772175
 21
89.3923101204883181
 31
0.0
  0
LINE
  5
73
100
AcDbEntity
100
AcDbLine
  8
Helpers
 62
256
370
-1
  6
ByLayer
 10
-68.5
 20
50.0
 30
0.0
 11
-88.5
 21
84.6410161513775563
 31
0.0
  0
LINE
  5
74
100
AcDbEntity
100
AcDbLine
  8
Helpers
 62
256
370
-1
  6
ByLayer
 10
-68.5
 20
50.0
 30
0.0
 11
-99.1417777247591232
 21
75.7115043874615878
 31
0.0
  0
LINE
  5
75
100
AcDbEntity
100
AcDbLine
  8
Helpers
 62
256
370
-1
  6
ByLayer
 10
-68.5
 20
50.0
 30
0.0
 11
-106.0877048314363265
 21
63.6808057330267587
 31
0.0
  0
LINE
  5
76
100
AcDbEntity
100
AcDbLine
  8
Helpers
 62
256
370
-1
  6
ByLayer
 10
-68.5
 20
50.0
 30
0.0
 11
-106.0877048314363407
 21
36.3191942669732555
 31
0.0
  0
LINE
  5
77
100
AcDbEntity
100
AcDbLine
  8
Helpers
 62
256
370
-1
  6
ByLayer
 10
-68.5
 20
50.0
 30
0.0
 11
-30.9122951685636593
 21
36.3191942669732555
 31
0.0
  0
CIRCLE
  5
78
100
AcDbEntity
100
AcDbCircle
  8
Sides
 62
256
370
-1
  6
ByLayer
 10
-106.0877048314363407
 20
36.3191942669732555
 30
0.0
 40
3.0
  0
CIRCLE
  5
79
100
AcDbEntity
100
AcDbCircle
  8
Sides
 62
256
370
-1
  6
ByLayer
 10
-108.5
 20
50.0
 30
0.0
 40
3.0
  0
CIRCLE
  5
7A
100
AcDbEntity
100
AcDbCircle
  8
Sides
 62
256
370
-1
  6
ByLayer
 10
-106.0877048314363265
 20
63.6808057330267587
 30
0.0
 40
3.0
  0
CIRCLE
  5
7B
100
AcDbEntity
100
AcDbCircle
  8
Sides
 62
256
370
-1
  6
ByLayer
 10
-99.141777724759109
 20
75.7115043874615878
 30
0.0
 40
3.0
  0
CIRCLE
  5
7C
100
AcDbEntity
100
AcDbCircle
  8
Sides
 62
256
370
-1
  6
ByLayer
 10
-88.5
 20
84.6410161513775563
 30
0.0
 40
3.0
  0
CIRCLE
  5
7D
100
AcDbEntity
100
AcDbCircle
  8
Sides
 62
256
370
-1
  6
ByLayer
 10
-75.4459271066772175
 20
89.3923101204883324
 30
0.0
 40
3.0
  0
CIRCLE
  5
7E
100
AcDbEntity
100
AcDbCircle
  8
Sides
 62
256
370
-1
  6
ByLayer
 10
-61.5540728933227825
 20
89.3923101204883324
 30
0.0
 40
3.0
  0
CIRCLE
  5
7F
100
AcDbEntity
100
AcDbCircle
  8
Sides
 62
256
370
-1
  6
ByLayer
 10
-48.5
 20
84.6410161513775421
 30
0.0
 40
3.0
  0
CIRCLE
  5
80
100
AcDbEntity
100
AcDbCircle
  8
Sides
 62
256
370
-1
  6
ByLayer
 10
-37.8582222752408768
 20
75.7115043874615736
 30
0.0
 40
3.0
  0
CIRCLE
  5
81
100
AcDbEntity
100
AcDbCircle
  8
Sides
 62
256
370
-1
  6
ByLayer
 10
-30.9122951685636593
 20
63.6808057330267445
 30
0.0
 40
3.0
  0
CIRCLE
  5
82
100
AcDbEntity
100
AcDbCircle
  8
Sides
 62
256
370
-1
  6
ByLayer
 10
-28.5
 20
50.0
 30
0.0
 40
3.0
  0
CIRCLE
  5
83
100
AcDbEntity
100
AcDbCircle
  8
Sides
 62
256
370
-1
  6
ByLayer
 10
-30.9122951685636593
 20
36.3191942669732555
 30
0.0
 40
3.0
  0
CIRCLE
  5
84
100
AcDbEntity
100
AcDbCircle
  8
Sides
 62
256
370
-1
  6
ByLayer
 10
-121.9999999999999716
 20
390.0
 30
0.0
 40
6.0
  0
CIRCLE
  5
85
100
AcDbEntity
100
AcDbCircle
  8
Sides
 62
256
370
-1
  6
ByLayer
 10
-14.9999999999999769
 20
390.0
 30
0.0
 40
6.0
  0
LINE
  5
86
100
AcDbEntity
100
AcDbLine
  8
Helpers
 62
256
370
-1
  6
ByLayer
 10
0.0
 20
0.0
 30
0.0
 11
0.000000000000026
 21
425.0
 31
0.0
  0
LINE
  5
87
100
AcDbEntity
100
AcDbLine
  8
Helpers
 62
256
370
-1
  6
ByLayer
 10
0.0
 20
0.0
 30
0.0
 11
0.0000000000000269
 21
440.0
 31
0.0
  0
LINE
  5
88
100
AcDbEntity
100
AcDbLine
  8
Sides
 62
256
370
-1
  6
ByLayer
 10
-116.9999999999999716
 20
440.0
 30
0.0
 11
-106.9999999999999716
 21
440.0
 31
0.0
  0
LINE
  5
89
100
AcDbEntity
100
AcDbLine
  8
Sides
 62
256
370
-1
  6
ByLayer
 10
-106.9999999999999716
 20
440.0
 30
0.0
 11
-106.9999999999999716
 21
425.0
 31
0.0
  0
LINE
  5
8A
100
AcDbEntity
100
AcDbLine
  8
Sides
 62
256
370
-1
  6
ByLayer
 10
-106.9999999999999716
 20
425.0
 30
0.0
 11
-116.9999999999999716
 21
425.0
 31
0.0
  0
LINE
  5
8B
100
AcDbEntity
100
AcDbLine
  8
Sides
 62
256
370
-1
  6
ByLayer
 10
-116.9999999999999716
 20
425.0
 30
0.0
 11
-116.9999999999999716
 21
440.0
 31
0.0
  0
LINE
  5
8C
100
AcDbEntity
100
AcDbLine
  8
Sides
 62
256
370
-1
  6
ByLayer
 10
-29.9999999999999716
 20
440.0
 30
0.0
 11
-19.9999999999999716
 21
440.0
 31
0.0
  0
LINE
  5
8D
100
AcDbEntity
100
AcDbLine
  8
Sides
 62
256
370
-1
  6
ByLayer
 10
-19.9999999999999716
 20
440.0
 30
0.0
 11
-19.9999999999999716
 21
425.0
 31
0.0
  0
LINE
  5
8E
100
AcDbEntity
100
AcDbLine
  8
Sides
 62
256
370
-1
  6
ByLayer
 10
-19.9999999999999716
 20
425.0
 30
0.0
 11
-29.9999999999999716
 21
425.0
 31
0.0
  0
LINE
  5
8F
100
AcDbEntity
100
AcDbLine
  8
Sides
 62
256
370
-1
  6
ByLayer
 10
-29.9999999999999716
 20
425.0
 30
0.0
 11
-29.9999999999999716
 21
440.0
 31
0.0
  0
LINE
  5
90
100
AcDbEntity
100
AcDbLine
  8
Sides
 62
256
370
-1
  6
ByLayer
 10
-0.0000000000002274
 20
1034.0
 30
0.0
 11
0.0000000000000317
 21
517.0
 31
0.0
  0
LINE
  5
91
100
AcDbEntity
100
AcDbLine
  8
Sides
 62
256
370
-1
  6
ByLayer
 10
-0.0000000000002274
 20
1034.0
 30
0.0
 11
-137.0000000000000568
 21
1034.0
 31
0.0
  0
LINE
  5
92
100
AcDbEntity
100
AcDbLine
  8
Sides
 62
256
370
-1
  6
ByLayer
 10
-137.0000000000000568
 20
1034.0
 30
0.0
 11
-136.9999999999999716
 21
517.0
 31
0.0
  0
CIRCLE
  5
93
100
AcDbEntity
100
AcDbCircle
  8
Sides
 62
256
370
-1
  6
ByLayer
 10
-25.0000000000001563
 20
1009.0
 30
0.0
 40
6.0
  0
CIRCLE
  5
94
100
AcDbEntity
100
AcDbCircle
  8
Sides
 62
256
370
-1
  6
ByLayer
 10
-111.9999999999999432
 20
1009.0
 30
0.0
 40
6.0
  0
CIRCLE
  5
95
100
AcDbEntity
100
AcDbCircle
  8
Sides
 62
256
370
-1
  6
ByLayer
 10
-68.4999999999999147
 20
984.0
 30
0.0
 40
13.0
  0
CIRCLE
  5
96
100
AcDbEntity
100
AcDbCircle
  8
Sides
 62
256
370
-1
  6
ByLayer
 10
-122.6644264156716275
 20
993.5506497716810372
 30
0.0
 40
3.0
  0
CIRCLE
  5
97
100
AcDbEntity
100
AcDbCircle
  8
Sides
 62
256
370
-1
  6
ByLayer
 10
-122.6644264156715423
 20
974.4493502283188491
 30
0.0
 40
3.0
  0
CIRCLE
  5
98
100
AcDbEntity
100
AcDbCircle
  8
Sides
 62
256
370
-1
  6
ByLayer
 10
-116.1313972081443353
 20
956.5
 30
0.0
 40
3.0
  0
CIRCLE
  5
99
100
AcDbEntity
100
AcDbCircle
  8
Sides
 62
256
370
-1
  6
ByLayer
 10
-103.8533185327597721
 20
941.8675556284562163
 30
0.0
 40
3.0
  0
CIRCLE
  5
9A
100
AcDbEntity
100
AcDbCircle
  8
Sides
 62
256
370
-1
  6
ByLayer
 10
-87.3111078829120117
 20
932.3169058567750653
 30
0.0
 40
3.0
  0
CIRCLE
  5
9B
100
AcDbEntity
100
AcDbCircle
  8
Sides
 62
256
370
-1
  6
ByLayer
 10
-68.5000000000001563
 20
929.0
 30
0.0
 40
3.0
  0
CIRCLE
  5
9C
100
AcDbEntity
100
AcDbCircle
  8
Sides
 62
256
370
-1
  6
ByLayer
 10
-49.6888921170881304
 20
932.3169058567750653
 30
0.0
 40
3.0
  0
CIRCLE
  5
9D
100
AcDbEntity
100
AcDbCircle
  8
Sides
 62
256
370
-1
  6
ByLayer
 10
-33.1466814672405548
 20
941.8675556284563299
 30
0.0
 40
3.0
  0
CIRCLE
  5
9E
100
AcDbEntity
100
AcDbCircle
  8
Sides
 62
256
370
-1
  6
ByLayer
 10
-20.8686027918558494
 20
956.5
 30
0.0
 40
3.0
  0
CIRCLE
  5
9F
100
AcDbEntity
100
AcDbCircle
  8
Sides
 62
256
370
-1
  6
ByLayer
 10
-14.3355735843288983
 20
974.4493502283189628
 30
0.0
 40
3.0
  0
CIRCLE
  5
A0
100
AcDbEntity
100
AcDbCircle
  8
Sides
 62
256
370
-1
  6
ByLayer
 10
-14.3355735843288272
 20
993.5506497716812646
 30
0.0
 40
3.0
  0
CIRCLE
  5
A1
100
AcDbEntity
100
AcDbCircle
  8
Sides
 62
256
370
-1
  6
ByLayer
 10
-106.0877048314365396
 20
997.6808057330267729
 30
0.0
 40
3.0
  0
CIRCLE
  5
A2
100
AcDbEntity
100
AcDbCircle
  8
Sides
 62
256
370
-1
  6
ByLayer
 10
-108.5000000000000568
 20
984.0
 30
0.0
 40
3.0
  0
CIRCLE
  5
A3
100
AcDbEntity
100
AcDbCircle
  8
Sides
 62
256
370
-1
  6
ByLayer
 10
-106.087704831436568
 20
970.3191942669732271
 30
0.0
 40
3.0
  0
CIRCLE
  5
A4
100
AcDbEntity
100
AcDbCircle
  8
Sides
 62
256
370
-1
  6
ByLayer
 10
-99.1417777247590095
 20
958.2884956125384406
 30
0.0
 40
3.0
  0
CIRCLE
  5
A5
100
AcDbEntity
100
AcDbCircle
  8
Sides
 62
256
370
-1
  6
ByLayer
 10
-88.5000000000001137
 20
949.358983848622529
 30
0.0
 40
3.0
  0
CIRCLE
  5
A6
100
AcDbEntity
100
AcDbCircle
  8
Sides
 62
256
370
-1
  6
ByLayer
 10
-75.4459271066772885
 20
944.6076898795117813
 30
0.0
 40
3.0
  0
CIRCLE
  5
A7
100
AcDbEntity
100
AcDbCircle
  8
Sides
 62
256
370
-1
  6
ByLayer
 10
-61.5540728933227683
 20
944.6076898795116676
 30
0.0
 40
3.0
  0
CIRCLE
  5
A8
100
AcDbEntity
100
AcDbCircle
  8
Sides
 62
256
370
-1
  6
ByLayer
 10
-48.5000000000000853
 20
949.358983848622529
 30
0.0
 40
3.0
  0
CIRCLE
  5
A9
100
AcDbEntity
100
AcDbCircle
  8
Sides
 62
256
370
-1
  6
ByLayer
 10
-37.8582222752408484
 20
958.2884956125384406
 30
0.0
 40
3.0
  0
CIRCLE
  5
AA
100
AcDbEntity
100
AcDbCircle
  8
Sides
 62
256
370
-1
  6
ByLayer
 10
-30.9122951685636878
 20
970.3191942669732271
 30
0.0
 40
3.0
  0
CIRCLE
  5
AB
100
AcDbEntity
100
AcDbCircle
  8
Sides
 62
256
370
-1
  6
ByLayer
 10
-28.5000000000003553
 20
984.0
 30
0.0
 40
3.0
  0
CIRCLE
  5
AC
100
AcDbEntity
100
AcDbCircle
  8
Sides
 62
256
370
-1
  6
ByLayer
 10
-30.912295168563773
 20
997.6808057330267729
 30
0.0
 40
3.0
  0
CIRCLE
  5
AD
100
AcDbEntity
100
AcDbCircle
  8
Sides
 62
256
370
-1
  6
ByLayer
 10
-122.0000000000000284
 20
644.0
 30
0.0
 40
6.0
  0
CIRCLE
  5
AE
100
AcDbEntity
100
AcDbCircle
  8
Sides
 62
256
370
-1
  6
ByLayer
 10
-15.0000000000000142
 20
644.0
 30
0.0
 40
6.0
  0
LINE
  5
AF
100
AcDbEntity
100
AcDbLine
  8
Sides
 62
256
370
-1
  6
ByLayer
 10
-116.9999999999999574
 20
594.0
 30
0.0
 11
-106.9999999999999858
 21
594.0
 31
0.0
  0
LINE
  5
B0
100
AcDbEntity
100
AcDbLine
  8
Sides
 62
256
370
-1
  6
ByLayer
 10
-106.9999999999999858
 20
594.0
 30
0.0
 11
-107.0000000000000142
 21
609.0
 31
0.0
  0
LINE
  5
B1
100
AcDbEntity
100
AcDbLine
  8
Sides
 62
256
370
-1
  6
ByLayer
 10
-107.0000000000000142
 20
609.0
 30
0.0
 11
-117.0
 21
609.0
 31
0.0
  0
LINE
  5
B2
100
AcDbEntity
100
AcDbLine
  8
Sides
 62
256
370
-1
  6
ByLayer
 10
-117.0
 20
609.0
 30
0.0
 11
-116.9999999999999574
 21
594.0
 31
0.0
  0
LINE
  5
B3
100
AcDbEntity
100
AcDbLine
  8
Sides
 62
256
370
-1
  6
ByLayer
 10
-29.9999999999999858
 20
594.0
 30
0.0
 11
-19.9999999999999432
 21
594.0
 31
0.0
  0
LINE
  5
B4
100
AcDbEntity
100
AcDbLine
  8
Sides
 62
256
370
-1
  6
ByLayer
 10
-19.9999999999999432
 20
594.0
 30
0.0
 11
-20.0000000000000142
 21
609.0
 31
0.0
  0
LINE
  5
B5
100
AcDbEntity
100
AcDbLine
  8
Sides
 62
256
370
-1
  6
ByLayer
 10
-20.0000000000000142
 20
609.0
 30
0.0
 11
-30.0000000000000142
 21
609.0
 31
0.0
  0
LINE
  5
B6
100
AcDbEntity
100
AcDbLine
  8
Sides
 62
256
370
-1
  6
ByLayer
 10
-30.0000000000000142
 20
609.0
 30
0.0
 11
-29.9999999999999858
 21
594.0
 31
0.0
  0
LINE
  5
B7
100
AcDbEntity
100
AcDbLine
  8
Measurements
 62
256
370
-1
  6
ByLayer
 10
-18.0
 20
433.0
 30
0.0
 11
-1.0
 21
433.0
 31
0.0
  0
LINE
  5
B8
100
AcDbEntity
100
AcDbLine
  8
Measurements
 62
256
370
-1
  6
ByLayer
 10
-1.0
 20
436.0
 30
0.0
 11
-1.0
 21
430.0
 31
0.0
  0
LINE
  5
B9
100
AcDbEntity
100
AcDbLine
  8
Measurements
 62
256
370
-1
  6
ByLayer
 10
-18.0
 20
436.0
 30
0.0
 11
-18.0
 21
430.0
 31
0.0
  0
MTEXT
  5
BA
100
AcDbEntity
100
AcDbMText
  8
Measurements
 62
256
370
-1
  6
ByLayer
 10
-13.0
 20
442.0
 30
0.0
 40
6.0
 41
100.0
 71
1
 72
2
  1
20
  7
standard
 50
0.0
 73
1
 44
1.0
  0
LINE
  5
BB
100
AcDbEntity
100
AcDbLine
  8
Measurements
 62
256
370
-1
  6
ByLayer
 10
-35.0
 20
440.0
 30
0.0
 11
-35.0
 21
425.0
 31
0.0
  0
LINE
  5
BC
100
AcDbEntity
100
AcDbLine
  8
Measurements
 62
256
370
-1
  6
ByLayer
 10
-38.0
 20
425.0
 30
0.0
 11
-32.0
 21
425.0
 31
0.0
  0
LINE
  5
BD
100
AcDbEntity
100
AcDbLine
  8
Measurements
 62
256
370
-1
  6
ByLayer
 10
-38.0
 20
440.0
 30
0.0
 11
-32.0
 21
440.0
 31
0.0
  0
MTEXT
  5
BE
100
AcDbEntity
100
AcDbMText
  8
Measurements
 62
256
370
-1
  6
ByLayer
 10
-44.0
 20
436.0
 30
0.0
 40
6.0
 41
100.0
 71
1
 72
2
  1
15
  7
standard
 50
0.0
 73
1
 44
1.0
  0
LINE
  5
BF
100
AcDbEntity
100
AcDbLine
  8
Measurements
 62
256
370
-1
  6
ByLayer
 10
-30.0
 20
445.0
 30
0.0
 11
-20.0
 21
445.0
 31
0.0
  0
LINE
  5
C0
100
AcDbEntity
100
AcDbLine
  8
Measurements
 62
256
370
-1
  6
ByLayer
 10
-30.0
 20
448.0
 30
0.0
 11
-30.0
 21
442.0
 31
0.0
  0
LINE
  5
C1
100
AcDbEntity
100
AcDbLine
  8
Measurements
 62
256
370
-1
  6
ByLayer
 10
-20.0
 20
448.0
 30
0.0
 11
-20.0
 21
442.0
 31
0.0
  0
MTEXT
  5
C2
100
AcDbEntity
100
AcDbMText
  8
Measurements
 62
256
370
-1
  6
ByLayer
 10
-28.0
 20
455.0
 30
0.0
 40
6.0
 41
100.0
 71
1
 72
2
  1
10
  7
standard
 50
0.0
 73
1
 44
1.0
  0
LINE
  5
C3
100
AcDbEntity
100
AcDbLine
  8
Measurements
 62
256
370
-1
  6
ByLayer
 10
2.0
 20
425.0000000000072191
 30
0.0
 11
8.0
 21
425.0000000000072191
 31
0.0
  0
LINE
  5
C4
100
AcDbEntity
100
AcDbLine
  8
Measurements
 62
256
370
-1
  6
ByLayer
 10
5.0
 20
425.0000000000072191
 30
0.0
 11
5.0
 21
0.0
 31
0.0
  0
LINE
  5
C5
100
AcDbEntity
100
AcDbLine
  8
Measurements
 62
256
370
-1
  6
ByLayer
 10
2.0
 20
0.0
 30
0.0
 11
8.0
 21
0.0
 31
0.0
  0
MTEXT
  5
C6
100
AcDbEntity
100
AcDbMText
  8
Measurements
 62
256
370
-1
  6
ByLayer
 10
10.0
 20
420.0
 30
0.0
 40
6.0
 41
100.0
 71
1
 72
2
  1
425
  7
standard
 50
0.0
 73
1
 44
1.0
  0
LINE
  5
C7
100
AcDbEntity
100
AcDbLine
  8
Measurements
 62
256
370
-1
  6
ByLayer
 10
-68.5
 20
50.0
 30
0.0
 11
-106.0877048314363407
 21
36.3191942669732555
 31
0.0
  0
LINE
  5
C8
100
AcDbEntity
100
AcDbLine
  8
Measurements
 62
256
370
-1
  6
ByLayer
 10
-106.7717451180876793
 20
38.1985795085450732
 30
0.0
 11
-105.403664544785002
 21
34.4398090254014377
 31
0.0
  0
MTEXT
  5
C9
100
AcDbEntity
100
AcDbMText
  8
Measurements
 62
256
370
-1
  6
ByLayer
 10
-89.8543002036982017
 20
40.8946181497295953
 30
0.0
 40
6.0
 41
100.0
 71
1
 72
2
  1
40
  7
standard
 50
0.0
 73
0
 44
1.0
  0
ARC
  5
CA
100
AcDbEntity
  8
Measurements
 62
256
370
-1
  6
ByLayer
100
AcDbCircle
 10
-68.5000000000001279
 20
50.0000000000000071
 30
0.0
 40
55.0000000000001279
100
AcDbArc
 50
350.0
 51
9.9999999999999893
  0
ARC
  5
CB
100
AcDbEntity
  8
Measurements
 62
256
370
-1
  6
ByLayer
100
AcDbCircle
 10
-68.5000000000002274
 20
50.0000000000000497
 30
0.0
 40
40.0000000000002345
100
AcDbArc
 50
340.0000000000000568
 51
359.9999999999999432
  0
LINE
  5
CC
100
AcDbEntity
100
AcDbLine
  8
Measurements
 62
256
370
-1
  6
ByLayer
 10
-12.365958078304141
 20
59.8979461270150466
 30
0.0
 11
-16.3051890903529753
 21
59.2033534163473263
 31
0.0
  0
LINE
  5
CD
100
AcDbEntity
100
AcDbLine
  8
Measurements
 62
256
370
-1
  6
ByLayer
 10
-12.3659580783041481
 20
40.1020538729849534
 30
0.0
 11
-16.3051890903529788
 21
40.7966465836526737
 31
0.0
  0
LINE
  5
CE
100
AcDbEntity
100
AcDbLine
  8
Measurements
 62
256
370
-1
  6
ByLayer
 10
-29.0329099269918416
 20
35.6351539803219168
 30
0.0
 11
-32.7916804101354771
 21
37.0032345536245941
 31
0.0
  0
LINE
  5
CF
100
AcDbEntity
100
AcDbLine
  8
Measurements
 62
256
370
-1
  6
ByLayer
 10
-26.4999999999999929
 20
50.0000000000000071
 30
0.0
 11
-30.4999999999999929
 21
50.0000000000000071
 31
0.0
  0
MTEXT
  5
D0
100
AcDbEntity
100
AcDbMText
  8
Measurements
 62
256
370
-1
  6
ByLayer
 10
-11.9789919754138356
 20
52.185707615664235
 30
0.0
 40
6.0
 41
100.0
 71
1
 72
2
  1
20%%d
  7
standard
 50
0.0
 73
0
 44
1.0
  0
MTEXT
  5
D1
100
AcDbEntity
100
AcDbMText
  8
Measurements
 62
256
370
-1
  6
ByLayer
 10
-27.6347042601131072
 20
45.1880786399274399
 30
0.0
 40
6.0
 41
100.0
 71
1
 72
2
  1
20%%d
  7
standard
 50
0.0
 73
0
 44
1.0
  0
LINE
  5
D2
100
AcDbEntity
100
AcDbLine
  8
Measurements
 62
256
370
-1
  6
ByLayer
 10
-68.5
 20
50.0
 30
0.0
 11
-122.6644264156714428
 21
40.4493502283188349
 31
0.0
  0
LINE
  5
D3
100
AcDbEntity
100
AcDbLine
  8
Measurements
 62
256
370
-1
  6
ByLayer
 10
-123.0117227710052958
 20
42.4189657343432529
 30
0.0
 11
-122.3171300603375897
 21
38.4797347222944168
 31
0.0
  0
MTEXT
  5
D4
100
AcDbEntity
100
AcDbMText
  8
Measurements
 62
256
370
-1
  6
ByLayer
 10
-99.1454317272030181
 20
53.9277021170393951
 30
0.0
 40
6.0
 41
100.0
 71
1
 72
2
  1
55
  7
standard
 50
0.0
 73
0
 44
1.0
  0
LINE
  5
D5
100
AcDbEntity
100
AcDbLine
  8
Measurements
 62
256
370
-1
  6
ByLayer
 10
-109.0877048314363265
 20
69.0
 30
0.0
 11
-103.0877048314363265
 21
69.0
 31
0.0
  0
LINE
  5
D6
100
AcDbEntity
100
AcDbLine
  8
Measurements
 62
256
370
-1
  6
ByLayer
 10
-125.6644264156714428
 20
65.0
 30
0.0
 11
-119.6644264156714428
 21
65.0
 31
0.0
  0
LINE
  5
D7
100
AcDbEntity
100
AcDbLine
  8
Measurements
 62
256
370
-1
  6
ByLayer
 10
-125.6644264156714428
 20
64.0
 30
0.0
 11
-125.6644264156714428
 21
66.0
 31
0.0
  0
LINE
  5
D8
100
AcDbEntity
100
AcDbLine
  8
Measurements
 62
256
370
-1
  6
ByLayer
 10
-119.6644264156714428
 20
64.0
 30
0.0
 11
-119.6644264156714428
 21
66.0
 31
0.0
  0
LINE
  5
D9
100
AcDbEntity
100
AcDbLine
  8
Measurements
 62
256
370
-1
  6
ByLayer
 10
-109.0877048314363265
 20
68.0
 30
0.0
 11
-109.0877048314363265
 21
70.0
 31
0.0
  0
LINE
  5
DA
100
AcDbEntity
100
AcDbLine
  8
Measurements
 62
256
370
-1
  6
ByLayer
 10
-103.0877048314363265
 20
68.0
 30
0.0
 11
-103.0877048314363265
 21
70.0
 31
0.0
  0
MTEXT
  5
DB
100
AcDbEntity
100
AcDbMText
  8
Measurements
 62
256
370
-1
  6
ByLayer
 10
-124.0
 20
73.0
 30
0.0
 40
6.0
 41
100.0
 71
1
 72
2
  1
6
  7
standard
 50
0.0
 73
0
 44
1.0
  0
MTEXT
  5
DC
100
AcDbEntity
100
AcDbMText
  8
Measurements
 62
256
370
-1
  6
ByLayer
 10
-107.0
 20
77.0
 30
0.0
 40
6.0
 41
100.0
 71
1
 72
2
  1
6
  7
standard
 50
0.0
 73
0
 44
1.0
  0
LINE
  5
DD
100
AcDbEntity
100
AcDbLine
  8
Measurements
 62
256
370
-1
  6
ByLayer
 10
-81.5
 20
67.0
 30
0.0
 11
-55.5
 21
67.0
 31
0.0
  0
LINE
  5
DE
100
AcDbEntity
100
AcDbLine
  8
Measurements
 62
256
370
-1
  6
ByLayer
 10
-81.5
 20
65.0
 30
0.0
 11
-81.5
 21
69.0
 31
0.0
  0
LINE
  5
DF
100
AcDbEntity
100
AcDbLine
  8
Measurements
 62
256
370
-1
  6
ByLayer
 10
-55.5
 20
65.0
 30
0.0
 11
-55.5
 21
69.0
 31
0.0
  0
MTEXT
  5
E0
100
AcDbEntity
100
AcDbMText
  8
Measurements
 62
256
370
-1
  6
ByLayer
 10
-72.0
 20
76.0
 30
0.0
 40
6.0
 41
100.0
 71
1
 72
2
  1
26
  7
standard
 50
0.0
 73
0
 44
1.0
  0
LINE
  5
E1
100
AcDbEntity
100
AcDbLine
  8
Sides
 62
256
370
-1
  6
ByLayer
 10
299.9999999999999432
 20
0.0
 30
0.0
 11
300.0
 21
517.0
 31
0.0
  0
LINE
  5
E2
100
AcDbEntity
100
AcDbLine
  8
Sides
 62
256
370
-1
  6
ByLayer
 10
319.9999999999999432
 20
-0.0000000000000049
 30
0.0
 11
320.0
 21
517.0
 31
0.0
  0
LINE
  5
E3
100
AcDbEntity
100
AcDbLine
  8
Sides
 62
256
370
-1
  6
ByLayer
 10
423.9999999999999432
 20
-0.0000000000000304
 30
0.0
 11
424.0
 21
517.0
 31
0.0
  0
LINE
  5
E4
100
AcDbEntity
100
AcDbLine
  8
Sides
 62
256
370
-1
  6
ByLayer
 10
443.9999999999999432
 20
-0.0000000000000353
 30
0.0
 11
444.0
 21
517.0
 31
0.0
  0
LINE
  5
E5
100
AcDbEntity
100
AcDbLine
  8
Sides
 62
256
370
-1
  6
ByLayer
 10
299.9999999999999432
 20
0.0
 30
0.0
 11
319.9999999999999432
 21
-0.0000000000000049
 31
0.0
  0
LINE
  5
E6
100
AcDbEntity
100
AcDbLine
  8
Sides
 62
256
370
-1
  6
ByLayer
 10
423.9999999999999432
 20
-0.0000000000000304
 30
0.0
 11
443.9999999999999432
 21
-0.0000000000000353
 31
0.0
  0
LINE
  5
E7
100
AcDbEntity
100
AcDbLine
  8
Measurements
 62
256
370
-1
  6
ByLayer
 10
-25.0
 20
25.0
 30
0.0
 11
-25.0
 21
0.0
 31
0.0
  0
LINE
  5
E8
100
AcDbEntity
100
AcDbLine
  8
Measurements
 62
256
370
-1
  6
ByLayer
 10
-25.0
 20
25.0
 30
0.0
 11
0.0000000000000015
 21
25.0
 31
0.0
  0
MTEXT
  5
E9
100
AcDbEntity
100
AcDbMText
  8
Measurements
 62
256
370
-1
  6
ByLayer
 10
-36.0
 20
15.0
 30
0.0
 40
6.0
 41
100.0
 71
1
 72
2
  1
25
  7
standard
 50
0.0
 73
0
 44
1.0
  0
MTEXT
  5
EA
100
AcDbEntity
100
AcDbMText
  8
Measurements
 62
256
370
-1
  6
ByLayer
 10
-15.0
 20
34.0
 30
0.0
 40
6.0
 41
100.0
 71
1
 72
2
  1
25
  7
standard
 50
0.0
 73
0
 44
1.0
  0
LINE
  5
EB
100
AcDbEntity
100
AcDbLine
  8
Measurements
 62
256
370
-1
  6
ByLayer
 10
-150.0000000000000284
 20
0.0
 30
0.0
 11
-150.0
 21
390.0
 31
0.0
  0
LINE
  5
EC
100
AcDbEntity
100
AcDbLine
  8
Measurements
 62
256
370
-1
  6
ByLayer
 10
-153.0000000000000284
 20
0.0
 30
0.0
 11
-147.0000000000000284
 21
0.0
 31
0.0
  0
LINE
  5
ED
100
AcDbEntity
100
AcDbLine
  8
Measurements
 62
256
370
-1
  6
ByLayer
 10
-153.0
 20
390.0
 30
0.0
 11
-147.0
 21
390.0
 31
0.0
  0
LINE
  5
EE
100
AcDbEntity
100
AcDbLine
  8
Measurements
 62
256
370
-1
  6
ByLayer
 10
-136.9999999999999716
 20
390.0
 30
0.0
 11
-121.9999999999999716
 21
390.0
 31
0.0
  0
LINE
  5
EF
100
AcDbEntity
100
AcDbLine
  8
Measurements
 62
256
370
-1
  6
ByLayer
 10
-121.9999999999999716
 20
388.5
 30
0.0
 11
-121.9999999999999716
 21
391.5
 31
0.0
  0
MTEXT
  5
F0
100
AcDbEntity
100
AcDbMText
  8
Measurements
 62
256
370
-1
  6
ByLayer
 10
-135.0
 20
398.0
 30
0.0
 40
6.0
 41
100.0
 71
1
 72
2
  1
15
  7
standard
 50
0.0
 73
0
 44
1.0
  0
LINE
  5
F1
100
AcDbEntity
100
AcDbLine
  8
Helpers
 62
256
370
-1
  6
ByLayer
 10
-300.0
 20
600.0
 30
0.0
 11
-300.0
 21
-100.0
 31
0.0
  0
LINE
  5
F2
100
AcDbEntity
100
AcDbLine
  8
Helpers
 62
256
370
-1
  6
ByLayer
 10
600.0
 20
600.0
 30
0.0
 11
600.0
 21
-100.0
 31
0.0
  0
LINE
  5
F3
100
AcDbEntity
100
AcDbLine
  8
Helpers
 62
256
370
-1
  6
ByLayer
 10
-300.0
 20
440.0
 30
0.0
 11
600.0
 21
440.0
 31
0.0
  0
LINE
  5
F4
100
AcDbEntity
100
AcDbLine
  8
Helpers
 62
256
370
-1
  6
ByLayer
 10
-300.0
 20
425.0
 30
0.0
 11
600.0
 21
425.0
 31
0.0
  0
LINE
  5
F5
100
AcDbEntity
100
AcDbLine
  8
Helpers
 62
256
370
-1
  6
ByLayer
 10
-300.0
 20
390.0
 30
0.0
 11
600.0
 21
390.0
 31
0.0
  0
LINE
  5
F6
100
AcDbEntity
100
AcDbLine
  8
Helpers
 62
256
370
-1
  6
ByLayer
 10
-300.0
 20
50.0
 30
0.0
 11
600.0
 21
50.0
 31
0.0
  0
LINE
  5
F7
100
AcDbEntity
100
AcDbLine
  8
Helpers
 62
256
370
-1
  6
ByLayer
 10
-300.0
 20
25.0
 30
0.0
 11
600.0
 21
25.0
 31
0.0
  0
LINE
  5
F8
100
AcDbEntity
100
AcDbLine
  8
Helpers
 62
256
370
-1
  6
ByLayer
 10
-300.0
 20
396.0
 30
0.0
 11
600.0
 21
396.0
 31
0.0
  0
LINE
  5
F9
100
AcDbEntity
100
AcDbLine
  8
Helpers
 62
256
370
-1
  6
ByLayer
 10
-300.0
 20
384.0
 30
0.0
 11
600.0
 21
384.0
 31
0.0
  0
LINE
  5
FA
100
AcDbEntity
100
AcDbLine
  8
Helpers
 62
256
370
-1
  6
ByLayer
 10
-300.0
 20
19.0
 30
0.0
 11
443.9999999999999432
 21
19.0
 31
0.0
  0
LINE
  5
FB
100
AcDbEntity
100
AcDbLine
  8
Helpers
 62
256
370
-1
  6
ByLayer
 10
-300.0
 20
31.0
 30
0.0
 11
600.0
 21
31.0
 31
0.0
  0
LINE
  5
FC
100
AcDbEntity
100
AcDbLine
  8
Spacers
 62
256
370
-1
  6
ByLayer
 10
319.9999999999999432
 20
31.0
 30
0.0
 11
423.9999999999999432
 21
31.0
 31
0.0
  0
LINE
  5
FD
100
AcDbEntity
100
AcDbLine
  8
Spacers
 62
256
370
-1
  6
ByLayer
 10
320.0
 20
396.0
 30
0.0
 11
424.0
 21
396.0
 31
0.0
  0
LINE
  5
FE
100
AcDbEntity
100
AcDbLine
  8
Spacers
 62
256
370
-1
  6
ByLayer
 10
320.0
 20
384.0
 30
0.0
 11
424.0
 21
384.0
 31
0.0
  0
LINE
  5
FF
100
AcDbEntity
100
AcDbLine
  8
Spacers
 62
256
370
-1
  6
ByLayer
 10
319.9999999999999432
 20
18.9999999999999964
 30
0.0
 11
424.0
 21
19.0
 31
0.0
  0
LINE
  5
100
100
AcDbEntity
100
AcDbLine
  8
Spacers
 62
256
370
-1
  6
DOT
 10
424.0
 20
396.0
 30
0.0
 11
444.0
 21
396.0
 31
0.0
  0
LINE
  5
101
100
AcDbEntity
100
AcDbLine
  8
Spacers
 62
256
370
-1
  6
DOT
 10
424.0
 20
384.0
 30
0.0
 11
444.0
 21
384.0
 31
0.0
  0
LINE
  5
102
100
AcDbEntity
100
AcDbLine
  8
Spacers
 62
256
370
-1
  6
DOT
 10
320.0
 20
396.0
 30
0.0
 11
300.0
 21
396.0
 31
0.0
  0
LINE
  5
103
100
AcDbEntity
100
AcDbLine
  8
Spacers
 62
256
370
-1
  6
DOT
 10
320.0
 20
384.0
 30
0.0
 11
300.0
 21
384.0
 31
0.0
  0
LINE
  5
104
100
AcDbEntity
100
AcDbLine
  8
Spacers
 62
256
370
-1
  6
DOT
 10
319.9999999999999432
 20
31.0
 30
0.0
 11
299.9999999999999432
 21
31.0
 31
0.0
  0
LINE
  5
105
100
AcDbEntity
100
AcDbLine
  8
Spacers
 62
256
370
-1
  6
DOT
 10
319.9999999999999432
 20
18.9999999999999964
 30
0.0
 11
299.9999999999999432
 21
18.9999999999999964
 31
0.0
  0
LINE
  5
106
100
AcDbEntity
100
AcDbLine
  8
Spacers
 62
256
370
-1
  6
DOT
 10
423.9999999999999432
 20
31.0
 30
0.0
 11
443.9999999999999432
 21
31.0
 31
0.0
  0
LINE
  5
107
100
AcDbEntity
100
AcDbLine
  8
Spacers
 62
256
370
-1
  6
DOT
 10
423.9999999999999432
 20
19.0
 30
0.0
 11
443.9999999999999432
 21
19.0
 31
0.0
  0
LINE
  5
108
100
AcDbEntity
100
AcDbLine
  8
Helpers
 62
256
370
-1
  6
ByLayer
 10
-300.0
 20
517.0
 30
0.0
 11
600.0
 21
517.0
 31
0.0
  0
LINE
  5
109
100
AcDbEntity
100
AcDbLine
  8
Measurements
 62
256
370
-1
  6
ByLayer
 10
50.0
 20
0.0
 30
0.0
 11
50.0
 21
517.0
 31
0.0
  0
LINE
  5
10A
100
AcDbEntity
100
AcDbLine
  8
Measurements
 62
256
370
-1
  6
ByLayer
 10
47.0
 20
517.0
 30
0.0
 11
53.0
 21
517.0
 31
0.0
  0
LINE
  5
10B
100
AcDbEntity
100
AcDbLine
  8
Measurements
 62
256
370
-1
  6
ByLayer
 10
47.0
 20
0.0
 30
0.0
 11
53.0
 21
0.0
 31
0.0
  0
MTEXT
  5
10C
100
AcDbEntity
100
AcDbMText
  8
Measurements
 62
256
370
-1
  6
ByLayer
 10
56.0
 20
500.0
 30
0.0
 40
6.0
 41
100.0
 71
1
 72
2
  1
517
  7
standard
 50
0.0
 73
0
 44
1.0
  0
MTEXT
  5
10D
100
AcDbEntity
100
AcDbMText
  8
Measurements
 62
256
370
-1
  6
ByLayer
 10
-166.0
 20
383.0
 30
0.0
 40
6.0
 41
100.0
 71
1
 72
2
  1
390
  7
standard
 50
0.0
 73
0
 44
1.0
  0
LINE
  5
10E
100
AcDbEntity
100
AcDbLine
  8
Measurements
 62
256
370
-1
  6
ByLayer
 10
600.0
 20
450.0
 30
0.0
 11
864.0
 21
450.0
 31
0.0
  0
LINE
  5
10F
100
AcDbEntity
100
AcDbLine
  8
Measurements
 62
256
370
-1
  6
ByLayer
 10
864.0
 20
447.0
 30
0.0
 11
864.0
 21
453.0
 31
0.0
  0
LINE
  5
110
100
AcDbEntity
100
AcDbLine
  8
Measurements
 62
256
370
-1
  6
ByLayer
 10
600.0
 20
447.0
 30
0.0
 11
600.0
 21
453.0
 31
0.0
  0
MTEXT
  5
111
100
AcDbEntity
100
AcDbMText
  8
Measurements
 62
256
370
-1
  6
ByLayer
 10
730.0
 20
460.0
 30
0.0
 40
6.0
 41
100.0
 71
1
 72
2
  1
264
  7
standard
 50
0.0
 73
0
 44
1.0
  0
LINE
  5
112
100
AcDbEntity
100
AcDbLine
  8
Crossbeams
 62
256
370
-1
  6
ByLayer
 10
320.0
 20
439.0
 30
0.0
 11
424.0
 21
439.0
 31
0.0
  0
LINE
  5
113
100
AcDbEntity
100
AcDbLine
  8
Crossbeams
 62
256
370
-1
  6
ByLayer
 10
444.0
 20
439.0000000000000568
 30
0.0
 11
504.0
 21
439.0000000000000568
 31
0.0
  0
LINE
  5
114
100
AcDbEntity
100
AcDbLine
  8
Crossbeams
 62
256
370
-1
  6
ByLayer
 10
444.0
 20
426.0
 30
0.0
 11
504.0
 21
426.0
 31
0.0
  0
LINE
  5
115
100
AcDbEntity
100
AcDbLine
  8
Crossbeams
 62
256
370
-1
  6
ByLayer
 10
320.0
 20
426.0
 30
0.0
 11
424.0
 21
426.0
 31
0.0
  0
LINE
  5
116
100
AcDbEntity
100
AcDbLine
  8
Crossbeams
 62
256
370
-1
  6
ByLayer
 10
300.0
 20
426.0
 30
0.0
 11
240.0
 21
426.0
 31
0.0
  0
LINE
  5
117
100
AcDbEntity
100
AcDbLine
  8
Crossbeams
 62
256
370
-1
  6
ByLayer
 10
300.0
 20
439.0
 30
0.0
 11
240.0
 21
439.0
 31
0.0
  0
LINE
  5
118
100
AcDbEntity
100
AcDbLine
  8
Crossbeams
 62
256
370
-1
  6
DOT
 10
300.0
 20
439.0
 30
0.0
 11
320.0
 21
439.0
 31
0.0
  0
LINE
  5
119
100
AcDbEntity
100
AcDbLine
  8
Crossbeams
 62
256
370
-1
  6
DOT
 10
300.0
 20
426.0
 30
0.0
 11
320.0
 21
426.0
 31
0.0
  0
LINE
  5
11A
100
AcDbEntity
100
AcDbLine
  8
Crossbeams
 62
256
370
-1
  6
DOT
 10
424.0
 20
439.0
 30
0.0
 11
444.0
 21
439.0000000000000568
 31
0.0
  0
LINE
  5
11B
100
AcDbEntity
100
AcDbLine
  8
Crossbeams
 62
256
370
-1
  6
DOT
 10
424.0
 20
426.0
 30
0.0
 11
444.0
 21
426.0
 31
0.0
  0
LINE
  5
11C
100
AcDbEntity
100
AcDbLine
  8
Sides
 62
256
370
-1
  6
DOT
 10
320.0
 20
440.0
 30
0.0
 11
300.0
 21
440.0
 31
0.0
  0
LINE
  5
11D
100
AcDbEntity
100
AcDbLine
  8
Sides
 62
256
370
-1
  6
DOT
 10
320.0
 20
425.0
 30
0.0
 11
300.0
 21
425.0
 31
0.0
  0
LINE
  5
11E
100
AcDbEntity
100
AcDbLine
  8
Sides
 62
256
370
-1
  6
DOT
 10
424.0
 20
440.0
 30
0.0
 11
444.0
 21
440.0
 31
0.0
  0
LINE
  5
11F
100
AcDbEntity
100
AcDbLine
  8
Sides
 62
256
370
-1
  6
DOT
 10
424.0
 20
425.0
 30
0.0
 11
444.0
 21
425.0
 31
0.0
  0
LINE
  5
120
100
AcDbEntity
100
AcDbLine
  8
Crossbeams
 62
256
370
-1
  6
ByLayer
 10
504.0
 20
439.0000000000000568
 30
0.0
 11
504.0
 21
426.0
 31
0.0
  0
LINE
  5
121
100
AcDbEntity
100
AcDbLine
  8
Crossbeams
 62
256
370
-1
  6
ByLayer
 10
240.0
 20
439.0
 30
0.0
 11
240.0
 21
426.0
 31
0.0
  0
LINE
  5
122
100
AcDbEntity
100
AcDbLine
  8
Spacers
 62
256
370
-1
  6
DOT
 10
300.0
 20
396.0
 30
0.0
 11
300.0
 21
384.0
 31
0.0
  0
LINE
  5
123
100
AcDbEntity
100
AcDbLine
  8
Spacers
 62
256
370
-1
  6
DOT
 10
444.0
 20
396.0
 30
0.0
 11
444.0
 21
384.0
 31
0.0
  0
LINE
  5
124
100
AcDbEntity
100
AcDbLine
  8
Crossbeams
 62
256
370
-1
  6
ByLayer
 10
600.0
 20
439.0
 30
0.0
 11
864.0
 21
439.0
 31
0.0
  0
LINE
  5
125
100
AcDbEntity
100
AcDbLine
  8
Crossbeams
 62
256
370
-1
  6
ByLayer
 10
600.0
 20
426.0
 30
0.0
 11
864.0
 21
426.0
 31
0.0
  0
LINE
  5
126
100
AcDbEntity
100
AcDbLine
  8
Crossbeams
 62
256
370
-1
  6
ByLayer
 10
600.0
 20
439.0
 30
0.0
 11
600.0
 21
426.0
 31
0.0
  0
LINE
  5
127
100
AcDbEntity
100
AcDbLine
  8
Crossbeams
 62
256
370
-1
  6
ByLayer
 10
864.0
 20
439.0
 30
0.0
 11
864.0
 21
426.0
 31
0.0
  0
LINE
  5
128
100
AcDbEntity
100
AcDbLine
  8
Measurements
 62
256
370
-1
  6
ByLayer
 10
590.0
 20
439.0
 30
0.0
 11
590.0
 21
426.0
 31
0.0
  0
LINE
  5
129
100
AcDbEntity
100
AcDbLine
  8
Measurements
 62
256
370
-1
  6
ByLayer
 10
587.0
 20
439.0
 30
0.0
 11
593.0
 21
439.0
 31
0.0
  0
LINE
  5
12A
100
AcDbEntity
100
AcDbLine
  8
Measurements
 62
256
370
-1
  6
ByLayer
 10
587.0
 20
426.0
 30
0.0
 11
593.0
 21
426.0
 31
0.0
  0
MTEXT
  5
12B
100
AcDbEntity
100
AcDbMText
  8
Measurements
 62
256
370
-1
  6
ByLayer
 10
579.0
 20
436.0
 30
0.0
 40
6.0
 41
100.0
 71
1
 72
2
  1
13
  7
standard
 50
0.0
 73
0
 44
1.0
  0
LINE
  5
12C
100
AcDbEntity
100
AcDbLine
  8
Crossbeams
 62
256
370
-1
  6
ByLayer
 10
891.0
 20
439.0
 30
0.0
 11
900.0
 21
439.0
 31
0.0
  0
LINE
  5
12D
100
AcDbEntity
100
AcDbLine
  8
Crossbeams
 62
256
370
-1
  6
ByLayer
 10
900.0
 20
439.0
 30
0.0
 11
900.0
 21
426.0
 31
0.0
  0
LINE
  5
12E
100
AcDbEntity
100
AcDbLine
  8
Crossbeams
 62
256
370
-1
  6
ByLayer
 10
891.0
 20
439.0
 30
0.0
 11
891.0
 21
426.0
 31
0.0
  0
LINE
  5
12F
100
AcDbEntity
100
AcDbLine
  8
Crossbeams
 62
256
370
-1
  6
ByLayer
 10
891.0
 20
426.0
 30
0.0
 11
900.0
 21
426.0
 31
0.0
  0
LINE
  5
130
100
AcDbEntity
100
AcDbLine
  8
Measurements
 62
256
370
-1
  6
ByLayer
 10
910.0
 20
439.0
 30
0.0
 11
910.0
 21
426.0
 31
0.0
  0
LINE
  5
131
100
AcDbEntity
100
AcDbLine
  8
Measurements
 62
256
370
-1
  6
ByLayer
 10
891.0
 20
449.0
 30
0.0
 11
900.0
 21
449.0
 31
0.0
  0
LINE
  5
132
100
AcDbEntity
100
AcDbLine
  8
Measurements
 62
256
370
-1
  6
ByLayer
 10
891.0
 20
446.0
 30
0.0
 11
891.0
 21
452.0
 31
0.0
  0
LINE
  5
133
100
AcDbEntity
100
AcDbLine
  8
Measurements
 62
256
370
-1
  6
ByLayer
 10
900.0
 20
446.0
 30
0.0
 11
900.0
 21
452.0
 31
0.0
  0
LINE
  5
134
100
AcDbEntity
100
AcDbLine
  8
Measurements
 62
256
370
-1
  6
ByLayer
 10
907.0
 20
439.0
 30
0.0
 11
913.0
 21
439.0
 31
0.0
  0
LINE
  5
135
100
AcDbEntity
100
AcDbLine
  8
Measurements
 62
256
370
-1
  6
ByLayer
 10
907.0
 20
426.0
 30
0.0
 11
913.0
 21
426.0
 31
0.0
  0
MTEXT
  5
136
100
AcDbEntity
100
AcDbMText
  8
Measurements
 62
256
370
-1
  6
ByLayer
 10
914.0
 20
435.0
 30
0.0
 40
6.0
 41
100.0
 71
1
 72
2
  1
13
  7
standard
 50
0.0
 73
0
 44
1.0
  0
MTEXT
  5
137
100
AcDbEntity
100
AcDbMText
  8
Measurements
 62
256
370
-1
  6
ByLayer
 10
894.0
 20
459.0
 30
0.0
 40
6.0
 41
100.0
 71
1
 72
2
  1
9
  7
standard
 50
0.0
 73
0
 44
1.0
  0
LINE
  5
138
100
AcDbEntity
100
AcDbLine
  8
Helpers
 62
256
370
-1
  6
ByLayer
 10
-300.0
 20
37.0
 30
0.0
 11
600.0
 21
37.0
 31
0.0
  0
LINE
  5
139
100
AcDbEntity
100
AcDbLine
  8
Helpers
 62
256
370
-1
  6
ByLayer
 10
-300.0
 20
63.0
 30
0.0
 11
600.0
 21
63.0
 31
0.0
  0
LINE
  5
13A
100
AcDbEntity
100
AcDbLine
  8
Sides
 62
256
370
-1
  6
DOT
 10
300.0
 20
63.0
 30
0.0
 11
319.9999999999999432
 21
63.0
 31
0.0
  0
LINE
  5
13B
100
AcDbEntity
100
AcDbLine
  8
Sides
 62
256
370
-1
  6
DOT
 10
424.0
 20
63.0
 30
0.0
 11
444.0
 21
63.0
 31
0.0
  0
LINE
  5
13C
100
AcDbEntity
100
AcDbLine
  8
Sides
 62
256
370
-1
  6
DOT
 10
444.0
 20
37.0
 30
0.0
 11
424.0
 21
37.0
 31
0.0
  0
LINE
  5
13D
100
AcDbEntity
100
AcDbLine
  8
Sides
 62
256
370
-1
  6
DOT
 10
300.0
 20
37.0
 30
0.0
 11
319.9999999999999432
 21
37.0
 31
0.0
  0
LINE
  5
13E
100
AcDbEntity
100
AcDbLine
  8
Winch axle
 62
256
370
-1
  6
ByLayer
 10
480.0
 20
62.0
 30
0.0
 11
200.0
 21
62.0
 31
0.0
  0
LINE
  5
13F
100
AcDbEntity
100
AcDbLine
  8
Winch axle
 62
256
370
-1
  6
ByLayer
 10
200.0
 20
38.0
 30
0.0
 11
480.0
 21
38.0
 31
0.0
  0
LINE
  5
140
100
AcDbEntity
100
AcDbLine
  8
Winch axle
 62
256
370
-1
  6
ByLayer
 10
200.0
 20
62.0
 30
0.0
 11
200.0
 21
38.0
 31
0.0
  0
LINE
  5
141
100
AcDbEntity
100
AcDbLine
  8
Winch axle
 62
256
370
-1
  6
ByLayer
 10
480.0
 20
62.0
 30
0.0
 11
480.0
 21
38.0
 31
0.0
  0
LINE
  5
142
100
AcDbEntity
100
AcDbLine
  8
Helpers
 62
256
370
-1
  6
ByLayer
 10
335.0
 20
30.0
 30
0.0
 11
335.0
 21
90.0
 31
0.0
  0
CIRCLE
  5
143
100
AcDbEntity
100
AcDbCircle
  8
Winch axle
 62
256
370
-1
  6
ByLayer
 10
335.0
 20
50.0
 30
0.0
 40
3.0
  0
LINE
  5
144
100
AcDbEntity
100
AcDbLine
  8
Helpers
 62
256
370
-1
  6
ByLayer
 10
235.0
 20
62.0
 30
0.0
 11
235.0
 21
202.0
 31
0.0
  0
LINE
  5
145
100
AcDbEntity
100
AcDbLine
  8
Helpers
 62
256
370
-1
  6
ByLayer
 10
235.0
 20
38.0
 30
0.0
 11
235.0
 21
-102.0
 31
0.0
  0
LINE
  5
146
100
AcDbEntity
100
AcDbLine
  8
Winch axle
 62
256
370
-1
  6
DOT
 10
232.0
 20
62.0
 30
0.0
 11
232.0
 21
38.0
 31
0.0
  0
LINE
  5
147
100
AcDbEntity
100
AcDbLine
  8
Winch axle
 62
256
370
-1
  6
DOT
 10
238.0
 20
62.0
 30
0.0
 11
238.0
 21
38.0
 31
0.0
  0
LINE
  5
148
100
AcDbEntity
100
AcDbLine
  8
Winch handle
 62
256
370
-1
  6
ByLayer
 10
232.0
 20
62.0
 30
0.0
 11
232.0
 21
202.0
 31
0.0
  0
LINE
  5
149
100
AcDbEntity
100
AcDbLine
  8
Winch handle
 62
256
370
-1
  6
ByLayer
 10
238.0
 20
62.0
 30
0.0
 11
238.0
 21
202.0
 31
0.0
  0
LINE
  5
14A
100
AcDbEntity
100
AcDbLine
  8
Winch handle
 62
256
370
-1
  6
ByLayer
 10
232.0
 20
38.0
 30
0.0
 11
232.0
 21
-102.0
 31
0.0
  0
LINE
  5
14B
100
AcDbEntity
100
AcDbLine
  8
Winch handle
 62
256
370
-1
  6
ByLayer
 10
238.0
 20
38.0
 30
0.0
 11
238.0
 21
-102.0
 31
0.0
  0
LINE
  5
14C
100
AcDbEntity
100
AcDbLine
  8
Winch handle
 62
256
370
-1
  6
ByLayer
 10
232.0
 20
202.0
 30
0.0
 11
238.0
 21
202.0
 31
0.0
  0
LINE
  5
14D
100
AcDbEntity
100
AcDbLine
  8
Winch handle
 62
256
370
-1
  6
ByLayer
 10
232.0
 20
-102.0
 30
0.0
 11
238.0
 21
-102.0
 31
0.0
  0
LINE
  5
14E
100
AcDbEntity
100
AcDbLine
  8
Winch handle
 62
256
370
-1
  6
DOT
 10
232.0
 20
62.0
 30
0.0
 11
232.0
 21
38.0
 31
0.0
  0
LINE
  5
14F
100
AcDbEntity
100
AcDbLine
  8
Winch handle
 62
256
370
-1
  6
DOT
 10
238.0
 20
62.0
 30
0.0
 11
238.0
 21
38.0
 31
0.0
  0
LINE
  5
150
100
AcDbEntity
100
AcDbLine
  8
Winch axle
 62
256
370
-1
  6
ByLayer
 10
880.0
 20
62.0
 30
0.0
 11
600.0
 21
62.0
 31
0.0
  0
LINE
  5
151
100
AcDbEntity
100
AcDbLine
  8
Winch axle
 62
256
370
-1
  6
ByLayer
 10
600.0
 20
38.0
 30
0.0
 11
880.0
 21
38.0
 31
0.0
  0
LINE
  5
152
100
AcDbEntity
100
AcDbLine
  8
Winch axle
 62
256
370
-1
  6
ByLayer
 10
600.0
 20
62.0
 30
0.0
 11
600.0
 21
38.0
 31
0.0
  0
LINE
  5
153
100
AcDbEntity
100
AcDbLine
  8
Winch axle
 62
256
370
-1
  6
ByLayer
 10
880.0
 20
62.0
 30
0.0
 11
880.0
 21
38.0
 31
0.0
  0
LINE
  5
154
100
AcDbEntity
100
AcDbLine
  8
Measurements
 62
256
370
-1
  6
ByLayer
 10
600.0
 20
72.0
 30
0.0
 11
635.0
 21
72.0
 31
0.0
  0
LINE
  5
155
100
AcDbEntity
100
AcDbLine
  8
Measurements
 62
256
370
-1
  6
ByLayer
 10
635.0
 20
69.0
 30
0.0
 11
635.0
 21
75.0
 31
0.0
  0
LINE
  5
156
100
AcDbEntity
100
AcDbLine
  8
Measurements
 62
256
370
-1
  6
ByLayer
 10
600.0
 20
69.0
 30
0.0
 11
600.0
 21
75.0
 31
0.0
  0
LINE
  5
157
100
AcDbEntity
100
AcDbLine
  8
Measurements
 62
256
370
-1
  6
ByLayer
 10
600.0
 20
30.0
 30
0.0
 11
735.0
 21
30.0
 31
0.0
  0
LINE
  5
158
100
AcDbEntity
100
AcDbLine
  8
Measurements
 62
256
370
-1
  6
ByLayer
 10
600.0
 20
27.0
 30
0.0
 11
600.0
 21
33.0
 31
0.0
  0
LINE
  5
159
100
AcDbEntity
100
AcDbLine
  8
Measurements
 62
256
370
-1
  6
ByLayer
 10
735.0
 20
27.0
 30
0.0
 11
735.0
 21
33.0
 31
0.0
  0
MTEXT
  5
15A
100
AcDbEntity
100
AcDbMText
  8
Measurements
 62
256
370
-1
  6
ByLayer
 10
614.0
 20
82.0
 30
0.0
 40
6.0
 41
100.0
 71
1
 72
2
  1
35
  7
standard
 50
0.0
 73
0
 44
1.0
  0
MTEXT
  5
15B
100
AcDbEntity
100
AcDbMText
  8
Measurements
 62
256
370
-1
  6
ByLayer
 10
661.0
 20
26.0
 30
0.0
 40
6.0
 41
100.0
 71
1
 72
2
  1
135
  7
standard
 50
0.0
 73
0
 44
1.0
  0
CIRCLE
  5
15C
100
AcDbEntity
100
AcDbCircle
  8
Winch axle
 62
256
370
-1
  6
ByLayer
 10
735.0
 20
50.0
 30
0.0
 40
3.0
  0
LINE
  5
15D
100
AcDbEntity
100
AcDbLine
  8
Winch axle
 62
256
370
-1
  6
DOT
 10
632.0
 20
62.0
 30
0.0
 11
632.0
 21
38.0
 31
0.0
  0
LINE
  5
15E
100
AcDbEntity
100
AcDbLine
  8
Winch axle
 62
256
370
-1
  6
DOT
 10
638.0
 20
62.0
 30
0.0
 11
638.0
 21
38.0
 31
0.0
  0
LINE
  5
15F
100
AcDbEntity
100
AcDbLine
  8
Measurements
 62
256
370
-1
  6
ByLayer
 10
632.0
 20
212.0
 30
0.0
 11
638.0
 21
212.0
 31
0.0
  0
LINE
  5
160
100
AcDbEntity
100
AcDbLine
  8
Measurements
 62
256
370
-1
  6
ByLayer
 10
632.0
 20
209.0
 30
0.0
 11
632.0
 21
215.0
 31
0.0
  0
LINE
  5
161
100
AcDbEntity
100
AcDbLine
  8
Measurements
 62
256
370
-1
  6
ByLayer
 10
638.0
 20
209.0
 30
0.0
 11
638.0
 21
215.0
 31
0.0
  0
MTEXT
  5
162
100
AcDbEntity
100
AcDbMText
  8
Measurements
 62
256
370
-1
  6
ByLayer
 10
634.0
 20
223.0
 30
0.0
 40
6.0
 41
100.0
 71
1
 72
2
  1
6
  7
standard
 50
0.0
 73
0
 44
1.0
  0
LINE
  5
163
100
AcDbEntity
100
AcDbLine
  8
Measurements
 62
256
370
-1
  6
ByLayer
 10
648.0
 20
62.0
 30
0.0
 11
648.0
 21
202.0
 31
0.0
  0
LINE
  5
164
100
AcDbEntity
100
AcDbLine
  8
Measurements
 62
256
370
-1
  6
ByLayer
 10
651.0
 20
202.0
 30
0.0
 11
645.0
 21
202.0
 31
0.0
  0
MTEXT
  5
165
100
AcDbEntity
100
AcDbMText
  8
Measurements
 62
256
370
-1
  6
ByLayer
 10
652.0
 20
136.0
 30
0.0
 40
6.0
 41
100.0
 71
1
 72
2
  1
140
  7
standard
 50
0.0
 73
0
 44
1.0
  0
LINE
  5
166
100
AcDbEntity
100
AcDbLine
  8
Measurements
 62
256
370
-1
  6
ByLayer
 10
741.0
 20
47.0
 30
0.0
 11
741.0
 21
53.0
 31
0.0
  0
LINE
  5
167
100
AcDbEntity
100
AcDbLine
  8
Measurements
 62
256
370
-1
  6
ByLayer
 10
744.0
 20
53.0
 30
0.0
 11
738.0
 21
53.0
 31
0.0
  0
LINE
  5
168
100
AcDbEntity
100
AcDbLine
  8
Measurements
 62
256
370
-1
  6
ByLayer
 10
744.0
 20
47.0
 30
0.0
 11
738.0
 21
47.0
 31
0.0
  0
MTEXT
  5
169
100
AcDbEntity
100
AcDbMText
  8
Measurements
 62
256
370
-1
  6
ByLayer
 10
745.0
 20
53.0
 30
0.0
 40
6.0
 41
100.0
 71
1
 72
2
  1
6
  7
standard
 50
0.0
 73
0
 44
1.0
  0
LINE
  5
16A
100
AcDbEntity
100
AcDbLine
  8
Winch handle
 62
256
370
-1
  6
ByLayer
 10
632.0
 20
62.0
 30
0.0
 11
632.0
 21
202.0
 31
0.0
  0
LINE
  5
16B
100
AcDbEntity
100
AcDbLine
  8
Winch handle
 62
256
370
-1
  6
ByLayer
 10
638.0
 20
62.0
 30
0.0
 11
638.0
 21
202.0
 31
0.0
  0
LINE
  5
16C
100
AcDbEntity
100
AcDbLine
  8
Winch handle
 62
256
370
-1
  6
ByLayer
 10
632.0
 20
38.0
 30
0.0
 11
632.0
 21
-102.0
 31
0.0
  0
LINE
  5
16D
100
AcDbEntity
100
AcDbLine
  8
Winch handle
 62
256
370
-1
  6
ByLayer
 10
638.0
 20
38.0
 30
0.0
 11
638.0
 21
-102.0
 31
0.0
  0
LINE
  5
16E
100
AcDbEntity
100
AcDbLine
  8
Winch handle
 62
256
370
-1
  6
ByLayer
 10
632.0
 20
202.0
 30
0.0
 11
638.0
 21
202.0
 31
0.0
  0
LINE
  5
16F
100
AcDbEntity
100
AcDbLine
  8
Winch handle
 62
256
370
-1
  6
ByLayer
 10
632.0
 20
-102.0
 30
0.0
 11
638.0
 21
-102.0
 31
0.0
  0
LINE
  5
170
100
AcDbEntity
100
AcDbLine
  8
Winch handle
 62
256
370
-1
  6
DOT
 10
632.0
 20
62.0
 30
0.0
 11
632.0
 21
38.0
 31
0.0
  0
LINE
  5
171
100
AcDbEntity
100
AcDbLine
  8
Winch handle
 62
256
370
-1
  6
DOT
 10
638.0
 20
62.0
 30
0.0
 11
638.0
 21
38.0
 31
0.0
  0
LINE
  5
172
100
AcDbEntity
100
AcDbLine
  8
Measurements
 62
256
370
-1
  6
ByLayer
 10
590.0
 20
62.0000000000000071
 30
0.0
 11
590.0
 21
38.0000000000000071
 31
0.0
  0
LINE
  5
173
100
AcDbEntity
100
AcDbLine
  8
Measurements
 62
256
370
-1
  6
ByLayer
 10
587.0
 20
62.0
 30
0.0
 11
593.0
 21
62.0
 31
0.0
  0
LINE
  5
174
100
AcDbEntity
100
AcDbLine
  8
Measurements
 62
256
370
-1
  6
ByLayer
 10
587.0
 20
38.0000000000000071
 30
0.0
 11
593.0
 21
38.0000000000000071
 31
0.0
  0
MTEXT
  5
175
100
AcDbEntity
100
AcDbMText
  8
Measurements
 62
256
370
-1
  6
ByLayer
 10
579.0
 20
53.0
 30
0.0
 40
6.0
 41
100.0
 71
1
 72
2
  1
24
  7
standard
 50
0.0
 73
0
 44
1.0
  0
LINE
  5
176
100
AcDbEntity
100
AcDbLine
  8
Sides
 62
256
370
-1
  6
ByLayer
 10
299.9999999999998863
 20
1034.0
 30
0.0
 11
300.0
 21
517.0
 31
0.0
  0
LINE
  5
177
100
AcDbEntity
100
AcDbLine
  8
Sides
 62
256
370
-1
  6
ByLayer
 10
319.9999999999999432
 20
1034.0
 30
0.0
 11
320.0
 21
517.0
 31
0.0
  0
LINE
  5
178
100
AcDbEntity
100
AcDbLine
  8
Sides
 62
256
370
-1
  6
ByLayer
 10
423.9999999999995453
 20
1034.0
 30
0.0
 11
424.0
 21
517.0
 31
0.0
  0
LINE
  5
179
100
AcDbEntity
100
AcDbLine
  8
Sides
 62
256
370
-1
  6
ByLayer
 10
443.9999999999996589
 20
1034.0
 30
0.0
 11
444.0
 21
517.0
 31
0.0
  0
LINE
  5
17A
100
AcDbEntity
100
AcDbLine
  8
Sides
 62
256
370
-1
  6
ByLayer
 10
299.9999999999998863
 20
1034.0
 30
0.0
 11
319.9999999999999432
 21
1034.0
 31
0.0
  0
LINE
  5
17B
100
AcDbEntity
100
AcDbLine
  8
Sides
 62
256
370
-1
  6
ByLayer
 10
423.9999999999995453
 20
1034.0
 30
0.0
 11
443.9999999999996589
 21
1034.0
 31
0.0
  0
LINE
  5
17C
100
AcDbEntity
100
AcDbLine
  8
Spacers
 62
256
370
-1
  6
ByLayer
 10
319.9999999999999432
 20
1003.0
 30
0.0
 11
423.9999999999998863
 21
1003.0
 31
0.0
  0
LINE
  5
17D
100
AcDbEntity
100
AcDbLine
  8
Spacers
 62
256
370
-1
  6
ByLayer
 10
320.0
 20
638.0
 30
0.0
 11
423.9999999999998863
 21
638.0000000000001137
 31
0.0
  0
LINE
  5
17E
100
AcDbEntity
100
AcDbLine
  8
Spacers
 62
256
370
-1
  6
ByLayer
 10
320.0
 20
650.0
 30
0.0
 11
423.9999999999998863
 21
650.0
 31
0.0
  0
LINE
  5
17F
100
AcDbEntity
100
AcDbLine
  8
Spacers
 62
256
370
-1
  6
ByLayer
 10
319.9999999999998863
 20
1015.0
 30
0.0
 11
423.9999999999999432
 21
1015.0
 31
0.0
  0
LINE
  5
180
100
AcDbEntity
100
AcDbLine
  8
Spacers
 62
256
370
-1
  6
DOT
 10
423.9999999999998863
 20
638.0000000000001137
 30
0.0
 11
444.0
 21
638.0
 31
0.0
  0
LINE
  5
181
100
AcDbEntity
100
AcDbLine
  8
Spacers
 62
256
370
-1
  6
DOT
 10
423.9999999999998863
 20
650.0
 30
0.0
 11
444.0
 21
650.0
 31
0.0
  0
LINE
  5
182
100
AcDbEntity
100
AcDbLine
  8
Spacers
 62
256
370
-1
  6
DOT
 10
320.0
 20
638.0
 30
0.0
 11
300.0
 21
638.0
 31
0.0
  0
LINE
  5
183
100
AcDbEntity
100
AcDbLine
  8
Spacers
 62
256
370
-1
  6
DOT
 10
320.0
 20
650.0
 30
0.0
 11
300.0
 21
650.0
 31
0.0
  0
LINE
  5
184
100
AcDbEntity
100
AcDbLine
  8
Spacers
 62
256
370
-1
  6
DOT
 10
319.9999999999999432
 20
1003.0
 30
0.0
 11
299.9999999999998863
 21
1003.0
 31
0.0
  0
LINE
  5
185
100
AcDbEntity
100
AcDbLine
  8
Spacers
 62
256
370
-1
  6
DOT
 10
319.9999999999998863
 20
1015.0
 30
0.0
 11
299.9999999999998863
 21
1015.0
 31
0.0
  0
LINE
  5
186
100
AcDbEntity
100
AcDbLine
  8
Spacers
 62
256
370
-1
  6
DOT
 10
423.9999999999998863
 20
1003.0
 30
0.0
 11
443.9999999999998863
 21
1003.0
 31
0.0
  0
LINE
  5
187
100
AcDbEntity
100
AcDbLine
  8
Spacers
 62
256
370
-1
  6
DOT
 10
423.9999999999999432
 20
1015.0
 30
0.0
 11
443.9999999999997726
 21
1015.0000000000001137
 31
0.0
  0
LINE
  5
188
100
AcDbEntity
100
AcDbLine
  8
Crossbeams
 62
256
370
-1
  6
ByLayer
 10
320.0
 20
595.0
 30
0.0
 11
424.0
 21
595.0
 31
0.0
  0
LINE
  5
189
100
AcDbEntity
100
AcDbLine
  8
Crossbeams
 62
256
370
-1
  6
ByLayer
 10
444.0
 20
595.0
 30
0.0
 11
504.0
 21
595.0
 31
0.0
  0
LINE
  5
18A
100
AcDbEntity
100
AcDbLine
  8
Crossbeams
 62
256
370
-1
  6
ByLayer
 10
444.0
 20
608.0
 30
0.0
 11
504.0
 21
608.0000000000001137
 31
0.0
  0
LINE
  5
18B
100
AcDbEntity
100
AcDbLine
  8
Crossbeams
 62
256
370
-1
  6
ByLayer
 10
320.0
 20
608.0
 30
0.0
 11
424.0
 21
608.0
 31
0.0
  0
LINE
  5
18C
100
AcDbEntity
100
AcDbLine
  8
Crossbeams
 62
256
370
-1
  6
ByLayer
 10
300.0
 20
608.0
 30
0.0
 11
239.9999999999999432
 21
608.0
 31
0.0
  0
LINE
  5
18D
100
AcDbEntity
100
AcDbLine
  8
Crossbeams
 62
256
370
-1
  6
ByLayer
 10
300.0
 20
595.0
 30
0.0
 11
239.9999999999999432
 21
595.0
 31
0.0
  0
LINE
  5
18E
100
AcDbEntity
100
AcDbLine
  8
Crossbeams
 62
256
370
-1
  6
DOT
 10
300.0
 20
595.0
 30
0.0
 11
320.0
 21
595.0
 31
0.0
  0
LINE
  5
18F
100
AcDbEntity
100
AcDbLine
  8
Crossbeams
 62
256
370
-1
  6
DOT
 10
300.0
 20
608.0
 30
0.0
 11
320.0
 21
608.0
 31
0.0
  0
LINE
  5
190
100
AcDbEntity
100
AcDbLine
  8
Crossbeams
 62
256
370
-1
  6
DOT
 10
424.0
 20
595.0
 30
0.0
 11
444.0
 21
595.0
 31
0.0
  0
LINE
  5
191
100
AcDbEntity
100
AcDbLine
  8
Crossbeams
 62
256
370
-1
  6
DOT
 10
424.0
 20
608.0
 30
0.0
 11
444.0
 21
608.0
 31
0.0
  0
LINE
  5
192
100
AcDbEntity
100
AcDbLine
  8
Sides
 62
256
370
-1
  6
DOT
 10
320.0
 20
594.0
 30
0.0
 11
300.0
 21
594.0
 31
0.0
  0
LINE
  5
193
100
AcDbEntity
100
AcDbLine
  8
Sides
 62
256
370
-1
  6
DOT
 10
320.0
 20
609.0
 30
0.0
 11
300.0
 21
609.0
 31
0.0
  0
LINE
  5
194
100
AcDbEntity
100
AcDbLine
  8
Sides
 62
256
370
-1
  6
DOT
 10
423.9999999999999432
 20
594.0000000000001137
 30
0.0
 11
444.0
 21
594.0
 31
0.0
  0
LINE
  5
195
100
AcDbEntity
100
AcDbLine
  8
Sides
 62
256
370
-1
  6
DOT
 10
424.0
 20
609.0
 30
0.0
 11
444.0
 21
609.0
 31
0.0
  0
LINE
  5
196
100
AcDbEntity
100
AcDbLine
  8
Crossbeams
 62
256
370
-1
  6
ByLayer
 10
504.0
 20
595.0
 30
0.0
 11
504.0
 21
608.0000000000001137
 31
0.0
  0
LINE
  5
197
100
AcDbEntity
100
AcDbLine
  8
Crossbeams
 62
256
370
-1
  6
ByLayer
 10
239.9999999999999432
 20
595.0
 30
0.0
 11
239.9999999999999432
 21
608.0
 31
0.0
  0
LINE
  5
198
100
AcDbEntity
100
AcDbLine
  8
Spacers
 62
256
370
-1
  6
DOT
 10
300.0
 20
638.0
 30
0.0
 11
300.0
 21
650.0
 31
0.0
  0
LINE
  5
199
100
AcDbEntity
100
AcDbLine
  8
Spacers
 62
256
370
-1
  6
DOT
 10
444.0
 20
638.0
 30
0.0
 11
444.0
 21
650.0
 31
0.0
  0
LINE
  5
19A
100
AcDbEntity
100
AcDbLine
  8
Sides
 62
256
370
-1
  6
DOT
 10
299.9999999999999432
 20
971.0
 30
0.0
 11
319.9999999999997726
 21
971.0
 31
0.0
  0
LINE
  5
19B
100
AcDbEntity
100
AcDbLine
  8
Sides
 62
256
370
-1
  6
DOT
 10
423.9999999999999432
 20
971.0
 30
0.0
 11
444.0
 21
971.0
 31
0.0
  0
LINE
  5
19C
100
AcDbEntity
100
AcDbLine
  8
Sides
 62
256
370
-1
  6
DOT
 10
443.9999999999997726
 20
997.0
 30
0.0
 11
424.0
 21
997.0
 31
0.0
  0
LINE
  5
19D
100
AcDbEntity
100
AcDbLine
  8
Sides
 62
256
370
-1
  6
DOT
 10
299.9999999999998863
 20
997.0
 30
0.0
 11
319.9999999999997726
 21
997.0
 31
0.0
  0
LINE
  5
19E
100
AcDbEntity
100
AcDbLine
  8
Measurements
 62
256
370
-1
  6
ByLayer
 10
-50.0
 20
50.0
 30
0.0
 11
-50.0
 21
0.0
 31
0.0
  0
LINE
  5
19F
100
AcDbEntity
100
AcDbLine
  8
Measurements
 62
256
370
-1
  6
ByLayer
 10
-51.5
 20
50.0
 30
0.0
 11
-48.5
 21
50.0
 31
0.0
  0
MTEXT
  5
1A0
100
AcDbEntity
100
AcDbMText
  8
Measurements
 62
256
370
-1
  6
ByLayer
 10
-60.0
 20
30.0
 30
0.0
 40
6.0
 41
100.0
 71
1
 72
0
  1
50
  7
standard
 50
0.0
 73
1
 44
1.0
  0
LINE
  5
1A1
100
AcDbEntity
100
AcDbLine
  8
Measurements
 62
256
370
-1
  6
ByLayer
 10
-68.5
 20
10.0
 30
0.0
 11
-137.0
 21
10.0
 31
0.0
  0
LINE
  5
1A2
100
AcDbEntity
100
AcDbLine
  8
Measurements
 62
256
370
-1
  6
ByLayer
 10
-68.5
 20
8.5
 30
0.0
 11
-68.5
 21
11.5
 31
0.0
  0
MTEXT
  5
1A3
100
AcDbEntity
100
AcDbMText
  8
Measurements
 62
256
370
-1
  6
ByLayer
 10
-90.0
 20
20.0
 30
0.0
 40
6.0
 41
100.0
 71
1
 72
0
  1
69
  7
standard
 50
0.0
 73
1
 44
1.0
  0
ENDSEC
  0
SECTION
  2
OBJECTS
  0
DICTIONARY
  5
C
100
AcDbDictionary
280
0
281
1
  3
ACAD_GROUP
350
D
  3
ACAD_LAYOUT
350
1A
  3
ACAD_MLINESTYLE
350
17
  3
ACAD_PLOTSETTINGS
350
19
  3
ACAD_PLOTSTYLENAME
350
E
  3
AcDbVariableDictionary
350
1A4
  0
DICTIONARY
  5
D
100
AcDbDictionary
280
0
281
1
  0
ACDBDICTIONARYWDFLT
  5
E
100
AcDbDictionary
281
1
  3
Normal
350
F
100
AcDbDictionaryWithDefault
340
F
  0
ACDBPLACEHOLDER
  5
F
  0
DICTIONARY
  5
17
100
AcDbDictionary
280
0
281
1
  3
Standard
350
18
  0
MLINESTYLE
  5
18
100
AcDbMlineStyle
  2
STANDARD
 70
0
  3

 62
256
 51
90.0
 52
90.0
 71
2
 49
0.5
 62
256
  6
BYLAYER
 49
-0.5
 62
256
  6
BYLAYER
  0
DICTIONARY
  5
19
100
AcDbDictionary
280
0
281
1
  0
DICTIONARY
  5
1A
100
AcDbDictionary
281
1
  3
Layout1
350
1E
  3
Layout2
350
26
  3
Model
350
22
  0
LAYOUT
  5
1E
100
AcDbPlotSettings
  1

  2
C:\Program Files\AutoCAD 2002\plotters\DWF ePlot (optimized for plotting).pc3
  4

  6

 40
0.0
 41
0.0
 42
0.0
 43
0.0
 44
0.0
 45
0.0
 46
0.0
 47
0.0
 48
0.0
 49
0.0
140
0.0
141
0.0
142
1.0
143
1.0
 70
688
 72
0
 73
0
 74
5
  7

 75
16
147
1.0
148
0.0
149
0.0
100
AcDbLayout
  1
Layout1
 70
1
 71
1
 10
0.0
 20
0.0
 11
420.0
 21
297.0
 12
0.0
 22
0.0
 32
0.0
 14
100000000000000000000.0
 24
100000000000000000000.0
 34
100000000000000000000.0
 15
-100000000000000000000.0
 25
-100000000000000000000.0
 35
-100000000000000000000.0
146
0.0
 13
0.0
 23
0.0
 33
0.0
 16
1.0
 26
0.0
 36
0.0
 17
0.0
 27
1.0
 37
0.0
 76
0
330
1B
  0
LAYOUT
  5
22
100
AcDbPlotSettings
  1

  2
C:\Program Files\AutoCAD 2002\plotters\DWF ePlot (optimized for plotting).pc3
  4

  6

 40
0.0
 41
0.0
 42
0.0
 43
0.0
 44
0.0
 45
0.0
 46
0.0
 47
0.0
 48
0.0
 49
0.0
140
0.0
141
0.0
142
1.0
143
1.0
 70
1712
 72
0
 73
0
 74
0
  7

 75
0
147
1.0
148
0.0
149
0.0
100
AcDbLayout
  1
Model
 70
1
 71
0
 10
0.0
 20
0.0
 11
12.0
 21
9.0
 12
0.0
 22
0.0
 32
0.0
 14
0.0
 24
0.0
 34
0.0
 15
0.0
 25
0.0
 35
0.0
146
0.0
 13
0.0
 23
0.0
 33
0.0
 16
1.0
 26
0.0
 36
0.0
 17
0.0
 27
1.0
 37
0.0
 76
0
330
1F
  0
LAYOUT
  5
26
100
AcDbPlotSettings
  1

  2
C:\Program Files\AutoCAD 2002\plotters\DWF ePlot (optimized for plotting).pc3
  4

  6

 40
0.0
 41
0.0
 42
0.0
 43
0.0
 44
0.0
 45
0.0
 46
0.0
 47
0.0
 48
0.0
 49
0.0
140
0.0
141
0.0
142
1.0
143
1.0
 70
688
 72
0
 73
0
 74
5
  7

 75
16
147
1.0
148
0.0
149
0.0
100
AcDbLayout
  1
Layout2
 70
1
 71
2
 10
0.0
 20
0.0
 11
12.0
 21
9.0
 12
0.0
 22
0.0
 32
0.0
 14
0.0
 24
0.0
 34
0.0
 15
0.0
 25
0.0
 35
0.0
146
0.0
 13
0.0
 23
0.0
 33
0.0
 16
1.0
 26
0.0
 36
0.0
 17
0.0
 27
1.0
 37
0.0
 76
0
330
23
  0
DICTIONARY
  5
1A4
100
AcDbDictionary
281
1
  3
DIMASSOC
350
1A6
  3
HIDETEXT
350
1A5
  0
DICTIONARYVAR
  5
1A5
100
DictionaryVariables
280
0
  1
2
  0
DICTIONARYVAR
  5
1A6
100
DictionaryVariables
280
0
  1
1
  0
ENDSEC
  0
EOF
